<svg xmlns="http://www.w3.org/2000/svg" viewBox="0 0 180.001 70.6"><g fill="#fff"><path d="M100.6 36.331l31.999-24.271L135.162 0H80.279l-2.995 14.087h25.528L70.081 38.696 67.74 49.708 57.142 0h-24.79L.168 50.419H22.79l3.228-5.579h18.681l.854 5.579h78.145l2.995-14.088H100.6zM56.397.92l4.745 22.251H42.587l-1.016-7.554h-.137l-4.227 7.554H18.654L32.856.92h23.541zM42.733 31.161H33.79L41 18.277l1.733 12.884zm3.611 18.338l-.855-5.579H25.486l-3.227 5.579H1.848l15.886-24.886H36.4l-4.181 7.469h11.567l-1.005-7.469h18.667l5.306 24.886h-20.41zm32.077-36.332L81.025.92h53l-2.255 10.614-15.342 11.637H92.263l13.305-10.005H78.421zm44.531 36.332H68.726l2.184-10.274 19.436-14.612h24.182L97.863 37.251h27.693l-2.604 12.248zM150.27 35.514L157.818 0h-21.069l-10.716 50.419h50.801l3.167-14.905H150.27zM156.681.92l-4.729 22.251h-19.186L137.495.92h19.186zm19.407 48.579h-48.919l5.291-24.886h19.185l-2.512 11.822h29.731l-2.776 13.064z"/></g><path fill="#df7a1c" d="M37.208 23.171l4.227-7.554h.136l1.016 7.554h18.555L56.397.92H32.856L18.654 23.171zM92.263 23.171h24.165l15.342-11.637L134.025.92h-53l-2.604 12.247h27.147zM151.952 23.171L156.681.92h-19.186l-4.729 22.251z"/><path fill="#762123" d="M42.782 24.612l1.005 7.469H32.22l4.18-7.469H17.733L1.848 49.499h20.411l3.227-5.579h20.003l.855 5.579h20.411l-5.306-24.887zM97.863 37.251l16.665-12.639H90.346L70.91 39.225l-2.184 10.274h54.226l2.604-12.248zM149.133 36.435l2.512-11.823H132.46l-5.291 24.887h48.919l2.776-13.064z"/><g fill="#231f20"><path d="M9.771 63.2H4.384l-.951 2.414H0l5.157-11.726h3.842l5.157 11.726h-3.432L9.771 63.2zm-2.692-6.783l-1.84 4.648h3.679l-1.839-4.648zM14.879 53.889h8.523c3.252 0 3.794 1.987 3.794 3.185 0 1.429-.575 2.349-1.905 2.825v.033c1.396.213 1.609 1.987 1.609 3.137 0 .575.049 1.954.608 2.546h-3.483c-.295-.542-.311-1.019-.311-2.25 0-1.644-.707-2.053-1.692-2.053h-3.958v4.303h-3.186V53.889zm3.186 5.188h4.22c.707 0 1.527-.394 1.527-1.495 0-1.166-.919-1.46-1.691-1.46h-4.056v2.955zM28.707 53.889h3.186v11.726h-3.186V53.889zM33.107 63.578l7.751-7.455h-7.225V53.89h11.413v2.036l-7.752 7.456h7.752v2.233H33.107v-2.037zM52.896 53.561c6.306 0 7.291 3.744 7.291 6.191 0 2.447-.984 6.191-7.291 6.191-6.306 0-7.292-3.744-7.292-6.191 0-2.447.986-6.191 7.292-6.191zm0 10.148c2.89 0 3.908-2.135 3.908-3.958 0-1.823-1.018-3.958-3.908-3.958-2.89 0-3.908 2.135-3.908 3.958 0 1.823 1.018 3.958 3.908 3.958zM71.486 53.889h3.087v11.726h-3.465l-6.389-8.179h-.032v8.179H61.6V53.889h3.695l6.158 8.178h.033v-8.178zM85.067 63.2H79.68l-.952 2.414h-3.432l5.157-11.726h3.842l5.158 11.726h-3.434l-.952-2.414zm-2.694-6.783l-1.838 4.648h3.678l-1.84-4.648z"/><g><path d="M96.678 53.889h3.187v9.394h7.143v2.332h-10.33V53.889zM108.37 53.889h10.953v2.233h-7.768v2.431h7.374v2.134h-7.374v2.694h7.834v2.233H108.37V53.889zM129.406 63.2h-5.387l-.951 2.414h-3.432l5.158-11.726h3.842l5.157 11.726h-3.434l-.953-2.414zm-2.693-6.783l-1.839 4.648h3.68l-1.841-4.648zM141.938 59.077h5.977v6.537h-1.609l-.428-1.363c-1.116 1.2-2.889 1.691-4.925 1.691-4.271 0-6.93-1.84-6.93-6.191 0-3.629 2.495-6.191 6.93-6.191 3.251 0 6.322.951 6.896 4.171h-3.547c-.476-1.511-1.84-1.938-2.988-1.938-2.891 0-3.91 2.135-3.91 3.958 0 1.823 1.019 3.958 3.91 3.958 1.74 0 3.087-.657 3.464-2.595h-2.841v-2.037zM149.721 53.889h3.186v6.733c0 1.15.049 3.088 2.973 3.088 2.922 0 2.971-1.938 2.971-3.088v-6.733h3.186v7.521c0 1.314-.164 4.533-6.157 4.533-5.995 0-6.159-3.218-6.159-4.533v-7.521zM163.975 53.889h10.954v2.233h-7.768v2.431h7.373v2.134h-7.373v2.694h7.834v2.233h-11.02V53.889z"/></g></g><path fill="#231f20" d="M173.945 67.765l-.689 1.85h-.014l-.657-1.85h-1.003V70.6h.579v-2.261h.016l.789 2.261h.56l.823-2.261h.014V70.6h.579v-2.835zM168.773 68.268h.851V70.6h.584v-2.332h.854v-.503h-2.289z"/><head xmlns=""/></svg>