<svg xmlns="http://www.w3.org/2000/svg" viewBox="0 0 153.297 144.001"><path d="M53.749 126.056a1715.86 1715.86 0 0 1-6.978 3.402l-.193.089c-1.794.791-3.618 1.186-5.441 1.186-5.941 0-11.18-4.406-12.457-10.478-.87-4.137.265-8.226 3.049-11.21l-1.069-.826V91.521a2037.934 2037.934 0 0 0-16.658-8.202c-1.407.95-3.048 1.808-4.872 1.808a8.771 8.771 0 0 1-3.543-.738c-2.961-1.304-4.95-4.068-5.46-7.585-.358-2.475.058-5.227 1.171-7.751 1.121-2.549 2.872-4.706 4.956-6.114a4.504 4.504 0 0 1 3.08-2.443c4.611-1.03 9.042-2.606 11.277-3.763-1.725-1.713-5.302-4.41-9.19-6.644a4.495 4.495 0 0 1-2.072-5.226c.571-1.888 2.353-3.207 4.332-3.207.096 0 .193.003.29.01.027.001 1.989.131 4.518.131 4.131 0 6.515-.324 7.828-.619-1.024-2.063-3.494-5.609-6.437-8.834a4.504 4.504 0 0 1-.407-5.571 4.51 4.51 0 0 1 5.32-1.706c3.033 1.127 8.893 2.89 12.217 3.025-.221-2.153-1.378-6.332-3.129-10.342a4.512 4.512 0 0 1 1.358-5.368 4.544 4.544 0 0 1 2.781-.957c.992 0 1.97.333 2.755.939 3.854 2.965 8.398 5.635 10.728 6.364.528-1.903.958-6.299.62-11.004a4.523 4.523 0 0 1 4.504-4.84 4.51 4.51 0 0 1 3.737 1.98c3.003 4.414 6.36 7.892 7.989 9.022 1.151-1.549 3.179-5.777 4.521-10.585A4.524 4.524 0 0 1 77.221 0a4.533 4.533 0 0 1 4.362 3.345c1.323 4.909 3.273 9.081 4.406 10.617 1.637-1.111 5.036-4.566 8.093-8.968a4.52 4.52 0 0 1 5.234-1.676 4.526 4.526 0 0 1 2.979 4.619c-.388 4.785-.011 9.108.501 10.999 2.481-.767 7.398-3.704 10.796-6.276a4.478 4.478 0 0 1 2.726-.915 4.515 4.515 0 0 1 4.12 6.367c-1.788 3.985-2.987 8.153-3.232 10.309 3.724-.122 10.202-2.19 12.239-2.928a4.506 4.506 0 0 1 5.306 1.752 4.504 4.504 0 0 1-.457 5.568c-2.969 3.2-5.473 6.725-6.52 8.782 1.378.32 3.926.679 8.42.679 2.225 0 3.887-.096 3.903-.097a4.538 4.538 0 0 1 4.6 3.235 4.497 4.497 0 0 1-2.115 5.21c-3.908 2.206-7.512 4.875-9.255 6.574 2.226 1.174 6.638 2.784 11.229 3.85a4.484 4.484 0 0 1 2.924 2.202c1.91 1.415 3.47 3.417 4.523 5.812 1.112 2.52 1.527 5.271 1.169 7.747-.51 3.518-2.497 6.28-5.454 7.581a8.754 8.754 0 0 1-3.547.742c-1.826 0-3.467-.858-4.875-1.808a1910.665 1910.665 0 0 0-16.003 7.876v17.022l-1.46 1.129c2.583 2.958 3.621 6.938 2.786 10.908-1.278 6.072-6.517 10.478-12.458 10.478-1.823 0-3.647-.395-5.422-1.176l-.153-.07a1645.428 1645.428 0 0 1-6.637-3.234l-22.973 17.748-23.227-17.947z" fill="#fff"/><path d="M87.237 118.62c-6.402 4.229-14.775 4.229-21.177 0-1.756.875-3.511 1.75-5.271 2.622l7.6 5.872c1.821-1.91 4.982-3.178 8.586-3.178 2.565 0 4.902.645 6.695 1.702l6.863-5.379c-1.1-.546-2.198-1.091-3.296-1.639zM112.159 95.415c-3.685 1.851-7.361 3.7-11.009 5.543 3.127 1.209 6.241 2.43 9.352 3.652l1.657-1.299v-7.896zM38.506 94.092v9.936l1.938 1.496a1937.46 1937.46 0 0 1 11.703-4.567c-4.517-2.28-9.068-4.574-13.641-6.865z" fill="#fff"/><path d="M115.446 104.028V93.764c-1.099.55-2.191 1.1-3.287 1.651v7.896l-1.657 1.299c.926.363 1.86.722 2.784 1.087l2.16-1.669zM83.671 125.638a8.736 8.736 0 0 1 1.891 1.476l7.346-5.675c-.793-.392-1.582-.787-2.374-1.18l-6.863 5.379z" fill="#d8d9da"/><path d="M115.508 109.625l-.08-.033a1870.99 1870.99 0 0 0-19.552-7.62c.024.793.003 1.586-.071 2.376l18.747 7.446c7.675 3.381 3.005 14.589-4.493 12.136-1.705-1.867-.196-5.252 1.6-6.313l-17.426-7.258a19.185 19.185 0 0 1-3.98 5.796c-.179.18-.363.351-.547.521a1881.11 1881.11 0 0 0 18.582 9.142l.079.038c1.259.553 2.535.833 3.794.833 4.04 0 7.615-3.056 8.501-7.268.879-4.185-1.143-8.031-5.154-9.796z" fill="#fdbc5f"/><path d="M110.059 123.93c7.499 2.453 12.169-8.755 4.493-12.136l-18.747-7.446a19.233 19.233 0 0 1-1.572 6.012l17.426 7.258c-1.796 1.06-3.305 4.445-1.6 6.312zM12.905 67.733c-1.861-.82-4.43.93-5.74 3.909-1.311 2.973-.865 6.052.996 6.872 1.329.583 2.404.14 3.741-1.408-1.935-.602-1.975-.863-2.55-1.447-.754-.761.558-.422.558-.422l48.809 20.33a19.112 19.112 0 0 1 2.764-4.852L14.588 72.087c.238-2.029-.355-3.771-1.683-4.354z" fill="#ffd8a7"/><path d="M141.372 65.161a4.76 4.76 0 0 0-1.936.403c-1.811.794-2.312 3.699-2.503 6.017a1727.42 1727.42 0 0 1-10.838 4.255c-1.283-1.325-2.11-2.618-1.925-3.651.655-3.666 14.538-6.759 14.538-6.759s-13.848-3.207-14.47-6.879c-.619-3.672 11.527-10.521 11.527-10.521s-14.253.85-16.09-2.467c-1.835-3.319 7.392-13.252 7.392-13.252s-13.273 4.822-16.144 2.183c-2.871-2.641 2.542-14.684 2.542-14.684s-10.99 8.32-14.617 6.618c-3.626-1.701-2.566-14.679-2.566-14.679s-7.63 11.005-11.659 10.404C80.594 21.554 77.2 8.913 77.2 8.913s-3.52 12.612-7.553 13.176c-4.033.565-11.549-10.5-11.549-10.5s.932 12.986-2.711 14.656c-3.645 1.671-14.55-6.734-14.55-6.734s5.292 12.086 2.395 14.701c-2.898 2.618-16.124-2.31-16.124-2.31s9.133 10.007 7.264 13.31c-1.869 3.303-16.118 2.34-16.118 2.34s12.086 6.943 11.43 10.612c-.654 3.667-14.537 6.759-14.537 6.759s13.847 3.205 14.47 6.877c.192 1.142-.854 2.591-2.382 4.047a1677.882 1677.882 0 0 1-10.87-4.267c-.192-2.318-.693-5.222-2.503-6.017a4.765 4.765 0 0 0-1.937-.403c-2.733 0-5.453 2.169-6.928 5.525-.812 1.839-1.119 3.807-.869 5.539.305 2.106 1.427 3.731 3.081 4.461a4.757 4.757 0 0 0 1.92.398c1.306 0 3.241-1.539 4.438-2.469 14.744 7.138 29.353 14.501 43.954 21.88a19.237 19.237 0 0 1 1.198-4.928L9.91 75.237s-1.311-.339-.558.422c.575.584.615.845 2.55 1.447-1.337 1.547-2.412 1.991-3.741 1.408-1.861-.819-2.307-3.899-.996-6.872 1.31-2.979 3.878-4.729 5.74-3.909 1.328.583 1.921 2.325 1.683 4.354l46.895 18.628c.364-.465.752-.917 1.165-1.354-10.851-4.092-21.697-8.194-32.496-12.378 2.662-1.936 5.305-4.31 5.027-5.96-.549-3.242-12.768-6.07-12.768-6.07s12.25-2.731 12.828-5.965c.58-3.237-10.084-9.363-10.084-9.363s12.573.85 14.221-2.066c1.65-2.913-6.41-11.745-6.41-11.745s11.671 4.349 14.229 2.04c2.557-2.308-2.112-12.973-2.112-12.973s9.621 7.418 12.837 5.943c3.215-1.475 2.393-12.932 2.393-12.932s6.632 9.763 10.19 9.265c3.56-.497 6.666-11.627 6.666-11.627s2.997 11.154 6.551 11.68c3.553.528 10.285-9.182 10.285-9.182s-.937 11.45 2.264 12.953c3.2 1.501 12.897-5.84 12.897-5.84s-4.776 10.626-2.243 12.957c2.536 2.329 14.248-1.927 14.248-1.927s-8.144 8.765-6.524 11.694c1.62 2.927 14.199 2.177 14.199 2.177s-10.719 6.043-10.173 9.284c.549 3.239 12.77 6.069 12.77 6.069s-12.251 2.73-12.827 5.965c-.277 1.548 2.017 3.755 4.486 5.639-10.785 4.179-21.617 8.275-32.454 12.362.413.438.801.89 1.166 1.354l46.895-18.628c-.239-2.03.354-3.772 1.681-4.354 1.862-.82 4.43.93 5.74 3.909 1.311 2.973.865 6.052-.996 6.872-1.329.583-2.404.14-3.741-1.408 1.934-.602 1.975-.863 2.55-1.447.753-.761-.558-.422-.558-.422l-48.809 20.33a19.19 19.19 0 0 1 1.199 4.927c14.6-7.378 29.209-14.741 43.953-21.879 1.198.929 3.133 2.469 4.438 2.469h.001c.671 0 1.317-.135 1.92-.398 1.654-.729 2.776-2.354 3.081-4.461.251-1.732-.057-3.7-.869-5.539-1.474-3.356-4.194-5.525-6.927-5.525zM63.043 116.156a19.192 19.192 0 0 1-3.979-5.797l-17.427 7.259c1.797 1.061 3.306 4.445 1.6 6.313-7.499 2.453-12.169-8.755-4.493-12.136 6.249-2.481 12.499-4.964 18.748-7.447a19.25 19.25 0 0 1-.071-2.377 1849.25 1849.25 0 0 0-19.553 7.621l-.08.033c-4.011 1.765-6.033 5.611-5.153 9.796.886 4.212 4.461 7.268 8.5 7.268 1.259 0 2.535-.28 3.794-.833l.078-.038c6.216-3.01 12.405-6.067 18.583-9.142-.183-.17-.367-.34-.547-.52z" fill="#fdbc5f"/><path d="M43.237 123.93c1.705-1.867.197-5.252-1.6-6.313l17.427-7.259a19.219 19.219 0 0 1-1.571-6.011l-18.748 7.447c-7.677 3.381-3.007 14.589 4.492 12.136zM143.944 75.659c-.575.584-.616.845-2.55 1.447 1.337 1.547 2.412 1.991 3.741 1.408 1.861-.819 2.307-3.899.996-6.872-1.31-2.979-3.878-4.729-5.74-3.909-1.328.583-1.921 2.325-1.681 4.354L91.815 90.715a19.143 19.143 0 0 1 2.764 4.852l48.809-20.33c-.001 0 1.31-.339.556.422z" fill="#ffd8a7"/><g><path d="M150.897 69.544c-1.026-2.333-2.564-4.227-4.361-5.49a3.307 3.307 0 0 0-2.254-1.834c-5.395-1.252-11.051-3.38-12.806-4.756 1.253-1.774 5.883-5.282 10.513-7.895a3.31 3.31 0 0 0-1.821-6.188c-.018.001-1.707.1-3.975.1-6.438 0-9.09-.732-10.043-1.119.564-1.988 3.767-6.607 7.259-10.371a3.31 3.31 0 0 0-3.553-5.364c-2.306.836-9.132 3.006-12.982 3.006-.403 0-.695-.025-.898-.054-.218-1.919 1.272-7.306 3.361-11.962a3.307 3.307 0 0 0-.957-3.945 3.312 3.312 0 0 0-4.06-.05c-3.613 2.735-9.769 6.496-12.277 6.702-.921-1.588-1.372-7.282-.952-12.484a3.31 3.31 0 0 0-6.018-2.157c-3.257 4.691-7.573 9.186-9.337 9.77-1.433-1.092-3.899-6.523-5.319-11.794a3.31 3.31 0 0 0-3.18-2.451h-.016a3.31 3.31 0 0 0-3.188 2.419c-1.442 5.165-4.007 10.673-5.44 11.757-1.758-.602-6.024-5.129-9.231-9.841a3.309 3.309 0 0 0-6.039 2.097c.368 5.113-.152 10.907-1.078 12.481-2.361-.207-8.086-3.625-12.209-6.799a3.31 3.31 0 0 0-5.052 3.948c2.043 4.677 3.481 10.079 3.24 11.992-.191.026-.46.048-.829.048-3.829 0-10.702-2.245-13.027-3.109a3.311 3.311 0 0 0-3.6 5.333c3.459 3.79 6.618 8.436 7.158 10.429-.92.366-3.435 1.045-9.44 1.045-2.576 0-4.574-.132-4.594-.134a3.308 3.308 0 1 0-1.871 6.172c4.604 2.645 9.2 6.191 10.434 7.975-1.765 1.362-7.445 3.445-12.858 4.655a3.31 3.31 0 0 0-2.379 2.077c-1.992 1.251-3.706 3.262-4.817 5.789-1.022 2.318-1.406 4.837-1.08 7.091.449 3.094 2.178 5.519 4.75 6.652a7.583 7.583 0 0 0 3.059.636c1.62 0 3.188-.867 4.762-1.996 5.99 2.908 11.993 5.87 17.975 8.85v16.851l1.709 1.32c-3.153 2.691-4.612 6.798-3.715 11.061 1.161 5.517 5.903 9.52 11.276 9.52 1.654 0 3.315-.36 4.936-1.074l.173-.08c2.547-1.233 5.098-2.48 7.647-3.729l23.083 17.833c7.61-5.881 15.219-11.758 22.829-17.638 2.43 1.19 4.859 2.378 7.288 3.554l.132.061c1.621.714 3.282 1.074 4.936 1.074 5.373 0 10.116-4.004 11.277-9.52.866-4.116-.466-8.088-3.415-10.787l2.063-1.593V90.45c5.766-2.87 11.549-5.721 17.321-8.523 1.574 1.129 3.142 1.996 4.764 1.996a7.578 7.578 0 0 0 3.062-.639c2.567-1.13 4.296-3.555 4.745-6.649.325-2.256-.059-4.775-1.081-7.091zM45.008 125.818l-.078.038c-1.259.553-2.535.833-3.794.833-4.04 0-7.615-3.056-8.5-7.268-.88-4.186 1.142-8.031 5.153-9.796l.08-.033c6.495-2.58 13.019-5.11 19.553-7.621a19.25 19.25 0 0 0 .071 2.377 19.212 19.212 0 0 0 1.571 6.011 19.192 19.192 0 0 0 3.979 5.797c.18.18.364.351.548.521a1915.305 1915.305 0 0 1-18.583 9.141zm-6.502-21.79v-9.936c4.573 2.292 9.124 4.585 13.642 6.866a1937.46 1937.46 0 0 0-11.703 4.567l-1.939-1.497zm28.623 12.299a1.499 1.499 0 0 1-.103-.064c-.062-.044-.119-.096-.18-.139l.283.203zm18.432 10.787a8.736 8.736 0 0 0-1.891-1.476c-1.793-1.058-4.13-1.702-6.695-1.702-3.604 0-6.765 1.268-8.586 3.178l-7.6-5.872c1.759-.872 3.515-1.747 5.271-2.622 6.402 4.229 14.775 4.229 21.177 0 1.098.548 2.196 1.094 3.296 1.64.791.393 1.581.788 2.374 1.18l-7.346 5.674zm35.1-7.693c-.886 4.212-4.461 7.268-8.501 7.268-1.259 0-2.535-.28-3.794-.833l-.079-.038a1859.159 1859.159 0 0 1-18.582-9.142c.184-.17.368-.341.547-.521a19.185 19.185 0 0 0 3.98-5.796 19.2 19.2 0 0 0 1.572-6.012c.074-.79.095-1.583.071-2.376a1870.99 1870.99 0 0 1 19.552 7.62l.08.033c4.012 1.766 6.034 5.612 5.154 9.797zm-19.512-18.463c3.648-1.843 7.324-3.692 11.009-5.543 1.096-.551 2.189-1.101 3.287-1.651v10.264l-2.16 1.668c-.924-.365-1.858-.724-2.784-1.087a1747.662 1747.662 0 0 0-9.352-3.651zm48.02-24.733c-.305 2.106-1.427 3.731-3.081 4.461a4.75 4.75 0 0 1-1.92.398h-.001c-1.305 0-3.24-1.539-4.438-2.469-14.743 7.138-29.353 14.5-43.953 21.879a19.19 19.19 0 0 0-1.199-4.927 19.082 19.082 0 0 0-3.93-6.206c10.837-4.087 21.668-8.184 32.454-12.362-2.469-1.883-4.764-4.091-4.486-5.639.576-3.235 12.827-5.965 12.827-5.965s-12.221-2.83-12.77-6.069c-.546-3.241 10.173-9.284 10.173-9.284s-12.579.75-14.199-2.177c-1.62-2.929 6.524-11.694 6.524-11.694s-11.712 4.256-14.248 1.927c-2.533-2.331 2.243-12.957 2.243-12.957s-9.698 7.341-12.897 5.84c-3.201-1.502-2.264-12.953-2.264-12.953s-6.732 9.71-10.285 9.182c-3.555-.526-6.551-11.68-6.551-11.68s-3.106 11.13-6.666 11.627c-3.558.499-10.19-9.265-10.19-9.265s.822 11.458-2.393 12.932c-3.216 1.475-12.837-5.943-12.837-5.943s4.668 10.664 2.112 12.973c-2.558 2.31-14.229-2.04-14.229-2.04s8.059 8.832 6.41 11.745c-1.648 2.916-14.221 2.066-14.221 2.066s10.664 6.126 10.084 9.363c-.577 3.235-12.828 5.965-12.828 5.965s12.22 2.828 12.768 6.07c.278 1.65-2.365 4.024-5.027 5.96 10.799 4.184 21.645 8.286 32.496 12.378a19.143 19.143 0 0 0-5.127 11.134c-14.6-7.379-29.21-14.742-43.954-21.88-1.198.929-3.133 2.469-4.438 2.469a4.774 4.774 0 0 1-1.92-.398c-1.654-.729-2.776-2.354-3.081-4.461-.251-1.732.057-3.7.869-5.539 1.476-3.356 4.195-5.525 6.928-5.525.678 0 1.329.135 1.937.403 1.81.794 2.311 3.699 2.503 6.017 3.615 1.437 7.241 2.855 10.87 4.267 1.528-1.456 2.574-2.905 2.382-4.047-.624-3.672-14.47-6.877-14.47-6.877s13.882-3.093 14.537-6.759c.657-3.669-11.43-10.612-11.43-10.612s14.249.963 16.118-2.34c1.869-3.303-7.264-13.31-7.264-13.31s13.226 4.928 16.124 2.31c2.897-2.614-2.395-14.701-2.395-14.701s10.906 8.405 14.55 6.734c3.643-1.67 2.711-14.656 2.711-14.656s7.517 11.065 11.549 10.5C73.68 21.525 77.2 8.913 77.2 8.913s3.394 12.641 7.423 13.236c4.029.601 11.657-10.405 11.657-10.405s-1.06 12.978 2.566 14.679c3.627 1.702 14.617-6.618 14.617-6.618s-5.413 12.043-2.542 14.684c2.872 2.639 16.144-2.183 16.144-2.183s-9.227 9.933-7.392 13.252c1.837 3.317 16.09 2.467 16.09 2.467s-12.146 6.85-11.527 10.521c.622 3.672 14.47 6.879 14.47 6.879s-13.882 3.093-14.538 6.759c-.185 1.034.643 2.327 1.925 3.651a1727.42 1727.42 0 0 0 10.838-4.255c.192-2.318.692-5.222 2.503-6.017a4.76 4.76 0 0 1 1.936-.403c2.732 0 5.453 2.169 6.928 5.525.814 1.84 1.122 3.808.871 5.54z" fill="#006892"/><path d="M67.129 116.327c-.095-.066-.189-.136-.283-.203.061.043.118.095.18.139.029.019.064.041.103.064zM80.066 113.805a17.243 17.243 0 0 0-.5-1.704c-.95-2.755-2.738-5.23-4.727-7.326-3.537-3.726-9.067-7.34-14.421-6.011-.031.007-.06.021-.091.029-1.245 5.434.245 11.367 4.477 15.6.521.521 1.074.984 1.643 1.424 4.576.964 9.424.289 13.619-2.012z" fill="#fff"/><path d="M74.581 100.178c3.927 2.995 6.926 7.383 7.53 12.334a19.903 19.903 0 0 0 2.437-2.062 19.695 19.695 0 0 0 5.235-9.343 9.01 9.01 0 0 1-1.322-.285c-2.376-.705-4.608-2.058-6.307-3.873-1.646-1.759-2.926-3.729-3.616-6.053-.483-1.627-.529-3.464.167-4.966-4.944-.609-10.107.979-13.902 4.775a16.666 16.666 0 0 0-4.195 7.011c4.193-2.491 10.299-.34 13.973 2.462z" fill="#fff"/><path d="M83.703 95.275c1.602 1.686 3.933 3.525 6.394 4.303a19.9 19.9 0 0 0-.186-7.253c.099.127.191.258.285.387-.042-.06-.08-.124-.122-.184a14.96 14.96 0 0 0-1.581-1.824 16.668 16.668 0 0 0-9.029-4.664c-.516 3.376 2.008 6.888 4.239 9.235z" fill="#fff"/><path d="M89.784 101.107a19.691 19.691 0 0 1-5.235 9.343 19.903 19.903 0 0 1-2.437 2.062c.033.265.063.531.081.801a7.969 7.969 0 0 1-1.463 5.478 16.676 16.676 0 0 0 7.763-4.398c3.738-3.738 5.334-8.802 4.796-13.677-1.074.46-2.306.555-3.505.391zM80.066 113.805a19.842 19.842 0 0 1-13.619 2.012l-.024-.006c.139.109.282.209.423.313.094.067.188.137.283.203a16.76 16.76 0 0 0 12.712 2.661 7.556 7.556 0 0 0 .502-2.205c.071-1.005-.049-2.003-.277-2.978zM90.097 99.578c1.02.323 2.062.46 3.083.331a16.662 16.662 0 0 0-2.983-7.197c-.094-.129-.187-.26-.285-.387.505 2.387.566 4.848.185 7.253z" fill="#d8d9da"/></g><g fill="#fff"><path d="M43.061 73.004c.588.014 1.031.179 1.329.496.298.316.447.794.447 1.437s-.149 1.121-.447 1.436c-.297.317-.741.481-1.329.496h-1.337v-3.864h1.337zm-.184 3.55c.277 0 .517-.03.717-.089.2-.06.365-.153.495-.283.13-.13.226-.299.287-.504.062-.206.092-.453.092-.741 0-.289-.031-.537-.092-.742a1.162 1.162 0 0 0-.287-.503 1.143 1.143 0 0 0-.495-.284 2.555 2.555 0 0 0-.717-.088h-.785v3.235h.785zM45.34 74.172c.076-.242.189-.455.341-.642.151-.185.342-.333.571-.443.229-.11.495-.165.798-.165.303 0 .568.055.795.165.228.11.417.258.568.443.152.187.265.4.341.642.076.242.113.497.113.764s-.038.522-.113.763a1.875 1.875 0 0 1-.341.638 1.636 1.636 0 0 1-.568.441 1.82 1.82 0 0 1-.795.165c-.303 0-.569-.056-.798-.165a1.662 1.662 0 0 1-.571-.441 1.866 1.866 0 0 1-.341-.638 2.53 2.53 0 0 1-.114-.763c0-.267.038-.522.114-.764zm.338 1.384c.056.204.143.386.26.547.117.16.267.289.452.387.184.097.404.146.66.146s.475-.049.658-.146c.182-.098.332-.227.449-.387.117-.161.204-.343.26-.547.056-.204.083-.411.083-.62 0-.213-.027-.421-.083-.623a1.65 1.65 0 0 0-.26-.544 1.325 1.325 0 0 0-.449-.387 1.375 1.375 0 0 0-.658-.146c-.256 0-.476.049-.66.146a1.299 1.299 0 0 0-.452.387 1.65 1.65 0 0 0-.26.544 2.323 2.323 0 0 0 0 1.243zM49.972 73.004l1.283 3.388 1.331-3.388h.542v3.864h-.368v-3.339h-.011l-1.32 3.339h-.346l-1.272-3.339H49.8v3.339h-.368v-3.864h.54zM54.28 73.004v3.864h-.368v-3.864h.368zM55.493 73.004l2.252 3.268h.01v-3.268h.369v3.864h-.412l-2.251-3.269h-.011v3.269h-.368v-3.864h.411zM59.292 73.004v3.864h-.368v-3.864h.368zM62.764 73.774a1.093 1.093 0 0 0-.271-.295 1.206 1.206 0 0 0-.351-.181 1.317 1.317 0 0 0-.403-.063c-.256 0-.476.049-.66.146a1.308 1.308 0 0 0-.452.387 1.67 1.67 0 0 0-.26.544 2.374 2.374 0 0 0 0 1.243c.056.204.143.386.26.547.117.16.268.289.452.387.184.097.404.146.66.146a1.15 1.15 0 0 0 .861-.364c.104-.111.189-.242.254-.392.064-.149.106-.311.124-.484h.368a2.1 2.1 0 0 1-.167.645 1.588 1.588 0 0 1-.336.487 1.425 1.425 0 0 1-.484.308 1.706 1.706 0 0 1-.62.108c-.303 0-.569-.056-.798-.165a1.662 1.662 0 0 1-.571-.441 1.883 1.883 0 0 1-.341-.638 2.53 2.53 0 0 1-.114-.763c0-.267.038-.522.114-.764.076-.242.189-.455.341-.642.152-.185.342-.333.571-.443.229-.11.495-.165.798-.165.184 0 .363.027.539.081.175.054.334.134.476.241.143.106.262.237.357.392.096.155.156.334.181.536h-.368a1.288 1.288 0 0 0-.16-.398zM65.451 73.004l1.515 3.864h-.395l-.471-1.202h-1.759l-.465 1.201h-.39l1.553-3.864h.412zm.524 2.348l-.747-1.98-.774 1.98h1.521zM67.724 73.004l2.251 3.268h.011v-3.268h.368v3.864h-.411l-2.251-3.269h-.012v3.269h-.368v-3.864h.412zM72.897 76.094a.821.821 0 0 0 .268.319c.114.079.248.136.403.17.155.034.321.051.498.051.101 0 .211-.015.33-.043a1.19 1.19 0 0 0 .333-.138.855.855 0 0 0 .257-.244.62.62 0 0 0 .103-.359.518.518 0 0 0-.073-.281.671.671 0 0 0-.189-.201 1.179 1.179 0 0 0-.257-.133 2.69 2.69 0 0 0-.276-.084l-.861-.211a2.735 2.735 0 0 1-.328-.108.946.946 0 0 1-.278-.173.807.807 0 0 1-.192-.265.9.9 0 0 1-.073-.385c0-.093.018-.204.054-.33a.922.922 0 0 1 .203-.357 1.18 1.18 0 0 1 .409-.285c.173-.077.395-.116.666-.116.191 0 .373.025.547.075.172.052.324.127.454.229.13.101.233.226.312.375.077.15.116.325.116.523h-.369a.908.908 0 0 0-.1-.388.877.877 0 0 0-.232-.276 1.082 1.082 0 0 0-.33-.168 1.334 1.334 0 0 0-.393-.057 1.62 1.62 0 0 0-.365.041.92.92 0 0 0-.308.13.668.668 0 0 0-.295.598c0 .091.015.169.046.236.03.066.073.123.127.17a.662.662 0 0 0 .187.113c.07.028.145.052.225.07l.941.233c.137.035.266.08.387.132.121.053.227.117.319.194a.835.835 0 0 1 .295.69c0 .043-.004.1-.013.173a.883.883 0 0 1-.065.23 1.148 1.148 0 0 1-.146.247.907.907 0 0 1-.26.224 1.51 1.51 0 0 1-.409.163 2.411 2.411 0 0 1-.585.062 2.45 2.45 0 0 1-.633-.078 1.377 1.377 0 0 1-.498-.241 1.06 1.06 0 0 1-.317-.417 1.35 1.35 0 0 1-.094-.612h.368c-.004.203.026.369.091.502zM76.371 73.004v2.392c0 .224.026.414.076.571a.968.968 0 0 0 .222.385.88.88 0 0 0 .357.217c.141.045.299.067.476.067.181 0 .341-.022.481-.067a.856.856 0 0 0 .357-.217.968.968 0 0 0 .222-.385c.05-.157.076-.347.076-.571v-2.392h.368v2.473c0 .199-.028.387-.085.565a1.236 1.236 0 0 1-.265.469 1.253 1.253 0 0 1-.465.316 1.83 1.83 0 0 1-.69.116c-.267 0-.496-.04-.685-.116a1.26 1.26 0 0 1-.465-.316 1.223 1.223 0 0 1-.265-.469 1.875 1.875 0 0 1-.084-.565v-2.473h.369zM80.279 73.004l1.283 3.388 1.331-3.388h.541v3.864h-.368v-3.339h-.011l-1.32 3.339h-.347l-1.272-3.339h-.011v3.339h-.368v-3.864h.542zM84.723 73.004l1.283 3.388 1.332-3.388h.541v3.864h-.369v-3.339h-.011l-1.32 3.339h-.347l-1.271-3.339h-.011v3.339h-.368v-3.864h.541zM91.304 73.004v.314h-2.301v1.395h2.154v.314h-2.154v1.526h2.328v.314h-2.695v-3.864h2.668zM93.615 73.004c.158 0 .309.019.452.059.142.04.266.1.373.182a.875.875 0 0 1 .254.314c.063.128.095.279.095.451 0 .247-.063.459-.189.639a.865.865 0 0 1-.563.346v.011c.125.018.23.051.313.1.083.048.15.111.203.187a.78.78 0 0 1 .113.263c.024.099.039.206.046.321l.01.239c.004.094.011.188.022.284.01.096.028.186.051.27a.508.508 0 0 0 .095.198h-.406a.443.443 0 0 1-.051-.132 1.087 1.087 0 0 1-.027-.163l-.014-.165a3.063 3.063 0 0 0-.011-.141 6.119 6.119 0 0 0-.035-.408 1.105 1.105 0 0 0-.103-.363.65.65 0 0 0-.228-.257.689.689 0 0 0-.408-.086h-1.396v1.715h-.368v-3.864h1.772zm-.028 1.834c.112 0 .218-.017.32-.051a.78.78 0 0 0 .446-.385.717.717 0 0 0 .068-.317c0-.237-.068-.425-.206-.562-.137-.138-.346-.205-.628-.205h-1.374v1.52h1.374zM97.327 73.004v3.55h2.165v.314h-2.533v-3.864h.368zM102.534 73.004v.314h-2.3v1.395h2.154v.314h-2.154v1.526h2.327v.314h-2.695v-3.864h2.668zM104.617 73.004l1.516 3.864h-.395l-.47-1.201h-1.759l-.466 1.201h-.39l1.554-3.864h.41zm.525 2.348l-.747-1.98-.774 1.98h1.521zM109.52 76.868l-.049-.703h-.011a1.345 1.345 0 0 1-.24.354 1.337 1.337 0 0 1-.688.382 1.898 1.898 0 0 1-.409.043c-.303 0-.569-.056-.798-.165a1.662 1.662 0 0 1-.571-.441 1.883 1.883 0 0 1-.341-.638 2.53 2.53 0 0 1-.113-.763c0-.267.038-.522.113-.764a1.93 1.93 0 0 1 .341-.642c.152-.185.341-.333.571-.443.229-.11.495-.165.798-.165.202 0 .393.027.574.081a1.46 1.46 0 0 1 .838.644c.098.159.164.345.201.558h-.369a.864.864 0 0 0-.11-.339 1.214 1.214 0 0 0-.254-.311 1.315 1.315 0 0 0-.879-.319c-.256 0-.476.049-.66.146a1.308 1.308 0 0 0-.452.387 1.67 1.67 0 0 0-.26.544c-.056.202-.083.41-.083.623 0 .209.027.416.083.62.056.204.143.386.26.547.117.16.268.289.452.387.184.097.404.146.66.146.213 0 .403-.036.571-.105a1.193 1.193 0 0 0 .685-.744c.058-.174.085-.363.081-.569h-1.315v-.313h1.64v1.964h-.266zM110.824 73.004v2.392c0 .224.025.414.076.571a.978.978 0 0 0 .221.385.876.876 0 0 0 .358.217c.141.045.299.067.476.067.181 0 .341-.022.481-.067a.85.85 0 0 0 .357-.217.968.968 0 0 0 .222-.385c.05-.157.076-.347.076-.571v-2.392h.368v2.473c0 .199-.028.387-.085.565a1.236 1.236 0 0 1-.265.469 1.257 1.257 0 0 1-.466.316 1.83 1.83 0 0 1-.69.116c-.267 0-.496-.04-.685-.116a1.26 1.26 0 0 1-.465-.316 1.223 1.223 0 0 1-.265-.469 1.875 1.875 0 0 1-.084-.565v-2.473h.37zM116.87 73.004v.314h-2.3v1.395h2.154v.314h-2.154v1.526h2.327v.314h-2.695v-3.864h2.668z"/></g><g><g fill="#fff"><path d="M41.487 43.359h13.077c2.578 0 4.66.33 6.247.989 1.586.658 2.898 1.604 3.935 2.835 1.037 1.232 1.788 2.665 2.254 4.299.466 1.634.699 3.366.699 5.196 0 2.866-.346 5.09-1.04 6.668-.693 1.581-1.655 2.903-2.885 3.971-1.23 1.067-2.552 1.777-3.963 2.131-1.93.489-3.679.732-5.246.732H41.487V43.359zm8.802 6.074v14.655h2.157c1.839 0 3.147-.192 3.925-.576.777-.384 1.386-1.055 1.826-2.013.44-.957.66-2.509.66-4.656 0-2.843-.492-4.787-1.476-5.836-.985-1.048-2.617-1.574-4.896-1.574h-2.196zM67.604 61.307l8.375-.494c.181 1.281.55 2.256 1.107 2.927.906 1.086 2.202 1.628 3.886 1.628 1.256 0 2.225-.278 2.905-.833.68-.555 1.02-1.198 1.02-1.929 0-.696-.324-1.317-.971-1.866-.648-.549-2.15-1.068-4.508-1.555-3.86-.817-6.613-1.903-8.258-3.256-1.658-1.354-2.487-3.08-2.487-5.178 0-1.378.424-2.681 1.272-3.906.848-1.226 2.125-2.189 3.828-2.891 1.703-.701 4.038-1.052 7.004-1.052 3.64 0 6.415.637 8.326 1.912 1.911 1.274 3.047 3.303 3.41 6.083l-8.296.458c-.22-1.208-.684-2.085-1.39-2.634-.706-.549-1.68-.824-2.924-.824-1.023 0-1.794.205-2.312.614-.518.409-.777.905-.777 1.491 0 .427.214.812.642 1.152.415.354 1.398.684 2.953.989 3.847.78 6.603 1.571 8.268 2.369 1.664.799 2.876 1.79 3.633 2.973.758 1.184 1.137 2.506 1.137 3.97 0 1.72-.506 3.306-1.516 4.756-1.01 1.452-2.421 2.552-4.235 3.303-1.814.75-4.1 1.125-6.859 1.125-4.845 0-8.199-.877-10.064-2.634-1.867-1.758-2.923-3.99-3.169-6.698zM94.693 43.359h8.802v20.216h13.737v6.605H94.693V43.359z"/></g><g fill="#d8d9da"><path d="M47.999 54.114v11.691h2.157c1.839 0 3.147-.192 3.925-.578a3.591 3.591 0 0 0 1.315-1.134 3.264 3.264 0 0 1-.457.276c-.777.384-2.086.576-3.924.576h-2.157V51.151l-.859 2.963zM65.568 52.341c-.466-1.634-1.218-3.067-2.254-4.3-1.036-1.231-2.348-2.177-3.935-2.835-1.586-.659-3.669-.987-6.247-.987h-9.583l3.194.858h5.531c2.577 0 4.66.329 6.247.988 1.586.659 2.898 1.604 3.935 2.836 1.037 1.232 1.788 2.665 2.254 4.299.466 1.635.699 3.366.699 5.196 0 2.867-.346 4.101-1.039 5.68a11.314 11.314 0 0 1-1.916 3.01c1.177-1.05 2.102-2.337 2.774-3.869.693-1.579 1.04-2.814 1.04-5.68-.001-1.829-.234-3.562-.7-5.196zM73.888 45.27c1.703-.701 2.321-1.051 5.287-1.051 3.639 0 6.415.637 8.326 1.912 1.721 1.148 1.599.653 2.705 2.885l.991 1.195c-.362-2.781-.926-3.665-2.837-4.939s-4.686-1.912-8.326-1.912c-2.966 0-3.583.351-5.287 1.052-1.467.604-2.614 1.404-3.447 2.396.711-.606 1.571-1.12 2.588-1.538zM91.582 58.003c-.757-1.134-1.969-2.084-3.633-2.851-1.665-.767-4.42-1.524-8.267-2.273-1.555-.293-2.54-.608-2.954-.948-.428-.328-.641-.696-.641-1.107a1.6 1.6 0 0 1 .196-.781 2.224 2.224 0 0 0-.278.176c-.518.392-.777.868-.777 1.43 0 .409.214.778.642 1.106.414.339 1.398.655 2.953.948 3.847.749 6.603 1.506 8.268 2.272 1.664.766 2.876 1.717 3.633 2.852.757 1.135 1.136 2.404 1.136 3.807 0 1.65-.218 2.347-1.229 3.739a8.425 8.425 0 0 1-.589.714 8.49 8.49 0 0 0 1.447-1.538c1.011-1.392 1.229-2.089 1.229-3.738.002-1.404-.377-2.673-1.136-3.808zM73.688 62.53c.182 1.281.551 2.257 1.107 2.928.907 1.086 2.775 1.914 4.459 1.914 1.256 0 2.225-.277 2.904-.831.271-.222.486-.457.649-.706-.665.452-1.562.68-2.695.68-1.684 0-3.552-.829-4.459-1.915-.557-.671-.926-1.646-1.107-2.928l-5.703.495c.025.273 1.494.406 1.535.669l3.31-.306zM102.944 64.246V44.029h-7.065l4.965.859h1.241v20.216h13.738v.634l.859 3.456v-4.948z"/></g></g><path fill="#fff" d="M72.89 132.745l4.085 4.105 4.085-4.105v-4.065h-8.17z"/><g><path d="M99.888 128.903h-.726v1.971h-.491v-1.971h-.725v-.423h1.941v.423zm3.277 1.971h-.484v-1.909h-.014l-.698 1.909h-.472l-.675-1.909h-.011v1.909h-.485v-2.394h.844l.562 1.569h.01l.583-1.569h.839v2.394z" fill="#006892"/></g></svg>