<svg height="254.729393" viewBox="0 0 486.66666 316.01334" width="392.573463" xmlns="http://www.w3.org/2000/svg"><g transform="matrix(.13333333 0 0 -.13333333 0 316.01333)"><path d="m2290.15 1667c-73.47 29.85-81.05 81.52-69.2 107.11 35.54 75.36 177.26 116.6 177.26 116.6-71.09 39.81-166.83 49.77-166.83 49.77-8.54 35.55-34.6 65.41-34.6 65.41 3.79 3.32 8.05 7.11 12.79 9.95l443.17 11.38c-18.48 115.17-203.34 329.42-655.51 342.68-54.51 1.43-110.44-3.79-166.37-11.37-313.78-41.71-590.58-210.45-706.7-440.8-115.19-228.46-18.49-446.49 80.57-539.87 198.13-186.27 547.45-253.1 959.34-111.38 302.39 103.8 519.01 377.29 517.11 592 .48.47-141.25-97.64-391.03-191.48" fill="#100f0d"/><path d="m2611.5 1754.68c-250.73-169.69-448.38-218.98-695.32-245.05-26.54-2.84-52.62-3.79-78.21-3.79-107.59-30.81-212.82-63.51-291.5-96.69 0 0 18.01 68.25 71.1 143.14-57.83 27.96-103.33 67.78-131.77 117.07-51.19 88.64-58.77 217.56 201.92 335.1 50.24 52.62 91 85.32 91 85.32s-9.95 78.21-90.05 153.1c0 0 96.69 22.28 190.06 8.06 0 0-7.58-57.83 24.65-71.57 32.23-13.75 69.2 19.9 25.12 60.67 0 0 59.24 25.59 110.44 31.28 0 0 53.56-43.14 92.43-88.16 0 0-65.41-21.33-17.54-46.93 33.65-18.01 80.57 13.75 80.57 13.75l133.2-70.15 231.3 2.37s-180.59 279.18-723.3 219.93c-294.34-32.24-551.24-197.18-661.21-415.21-104.27-206.65.95-373.5.95-373.5s-72.99 202.39 81.53 356.44c0 0-135.56-254.06 8.53-444.13 150.73-198.59 451.7-181.53 451.7-181.53s-405.72 53.56-417.57 390.56c0 0 65.41-246.47 326.09-316.62 521.86-140.3 807.67 168.74 807.67 168.74-328.94-158.78-522.32-110.91-522.32-110.91 332.25 54.03 607.63 183.42 700.53 378.71" fill="#ba9947"/><path d="m1870.67 1841.42c5.22-41.71-.94-75.37-.94-75.37s23.7 22.75 32.22 60.68c1.91 8.05 2.85 15.16 3.8 21.32-12.32-1.89-23.7-4.26-35.08-6.63m-64.46-113.76s13.28 27.49 15.65 61.14c.94 15.65 0 29.86-1.43 41.72-9.95-2.38-19.43-4.74-28.44-7.11 14.22-46.93 14.22-95.75 14.22-95.75m-34.13-27.02s-1.42 17.54-9 56.88c-4.74 24.18-9.48 41.71-13.27 54.51-8.53-2.37-16.59-4.74-24.65-7.11 16.59-35.55 25.6-80.1 46.92-104.28m-33.65-25.12s-17.06 29.86-29.38 68.26c-7.11 22.27-13.27 38.86-18.49 50.72-8.06-2.38-15.16-5.22-22.27-7.59 22.27-38.39 38.38-91.95 70.14-111.39m-6.16-27.96s-36.49 32.71-64.46 84.37c-9.95 18.48-18.96 33.18-27.01 45.03-7.12-2.85-13.28-5.22-18.49-7.12 29.86-38.39 59.25-100 109.96-122.28m432.27 150.73s-58.77-61.15-53.09-74.42c6.17-15.64 17.07-30.81 17.07-30.81-198.6-1.42-287.71-55.45-287.71-55.45 210.45 45.97 309.04.47 309.04.47-338.9-37.44-501.47-127.97-501.47-127.97 15.16 30.33 50.24 64.93 64.46 85.31 9.01 13.27 11.37 32.71 11.37 32.71s-44.55 21.8-89.1 85.32c-46.93 66.35-118.5 96.68-118.5 96.68 299.56 99.07 567.83 99.07 567.83 99.07-205.71 47.39-453.13-30.34-453.13-30.34 69.2 48.82 115.18 174.9 239.36 203.81 65.41 15.17 120.87 14.22 166.37 3.32-12.79 6.64-27.49 12.33-43.6 17.06-107.12 23.7-177.75-1.89-177.75-2.84-8.05 63.51-53.56 119.92-53.56 119.92s46.93 9 82.95 7.58c8.05-44.08 34.13-76.31 79.16-76.31s66.36 45.5 42.65 76.78c22.76 6.64 45.98 11.86 68.26 16.6 17.54-18.49 34.6-36.5 52.14-53.57.46 1.9-74.42-33.65 17.06-78.2 47.87-23.23 99.06-2.37 99.06-2.37 29.38-14.69 60.19-25.6 60.19-25.6s-70.14-25.59-109.96-68.72c7.58-9.01 14.22-18.49 19.44-28.44 17.06-31.29 25.11-82.95 25.11-82.95 32.24-3.32 91.01-16.11 91.01-16.11-250.73-76.32-411.89-201.92-411.89-201.92 72.05 32.71 287.23 111.39 287.23 111.39" fill="#d6dbdc"/><path d="m2025.2 2224.39 32.7-39.34c-27.02-40.76 10.42-67.3 36.49-83.42 43.61-27.01 109.5-18.01 109.5-18.01l24.65-14.22c20.37 10.43 35.54 16.12 35.54 16.12s-30.81 10.9-60.19 25.59c0 0-51.19-20.86-99.07 2.37-91.48 44.56-16.59 80.11-17.07 78.21-17.53 17.06-35.06 35.08-52.13 53.56-22.75-4.74-45.5-9.95-68.26-16.59 1.43-1.89 2.38-3.79 3.8-5.69z" fill="#fff"/><path d="m1898.64 2142.39c33.65-3.78 50.72 11.38 57.35 18.49-8.53-5.69-18.96-9-31.28-9-45.03 0-71.1 32.22-79.15 76.3-35.56 1.43-82.95-7.1-82.95-7.1s6.63-8.06 15.16-21.33c23.23 6.63 54.04 12.32 54.04 12.32 3.79-24.17 22.75-64.46 66.83-69.68" fill="#fff"/><path d="m2198.67 1905.88s-8.05 51.66-25.13 82.94c-38.86 70.16-139.82 132.72-302.39 94.8-54.51-12.8-93.85-44.08-127.03-79.63 47.4 35.55 180.59 99.06 298.14 38.87 73.94-37.92 86.27-111.39 88.63-133.66-14.22.47-30.33.94-45.98.47-.47 0-268.27 0-567.83-99.06 0 0 24.18-10.43 53.56-32.23 109.49 48.82 428.01 134.14 677.33 97.64 13.74 4.74 27.49 9 41.71 13.27 0 .47-58.78 12.8-91.01 16.59" fill="#fff"/><path d="m1840.81 1637.61c-54.51-16.59-90.05-31.76-90.05-31.76s125.13 34.13 263.06 13.27c41.71 7.11 87.21 13.74 136.5 18.96-.47 0-98.58 45.5-309.51-.47" fill="#fff"/><g fill="#ba9947"><path d="m2503.44 139.352c-3.32 0-6.63 0-9.95.48-25.6 1.887-48.35 9.949-66.36 24.168-20.38-10.43-42.19-16.121-64.93-16.121-2.85 0-5.22 0-7.59 0-19.43.953-33.17 5.691-38.39 7.59-9.96 3.793-17.07 11.851-19.91 21.332-3.32 10.898 0 22.738 8.06 30.801 0 0 0 0 .47.48 6.63 6.629 24.65 24.168 42.66 44.078 6.63 7.582 14.22 30.332 17.06 43.129.48 1.902.95 3.32 1.43 4.262 5.21 24.179 10.43 48.828 15.63 73l4.75 21.801c-25.13 1.418-51.67 3.796-78.22 7.117-9 .941-18 2.363-27.01 3.793-9-41.242-18.01-82.953-27.02-124.192-3.31-19.441-1.89-29.39-.95-31.281 10.43-23.699 21.81-45.027 22.28-45.98v-.469c4.75-9.008 4.75-19.91 0-28.91-3.79-7.59-11.37-13.75-20.85-16.121 0 0-13.75-3.797-33.18-3.797-1.9 0-3.79 0-6.16 0-25.59.957-48.35 8.539-66.36 22.289-26.07-14.219-51.19-17.539-69.2-17.539-1.42 0-2.37 0-3.79 0-22.76.468-37.44 6.16-38.87 6.629-9.48 3.32-16.59 10.91-19.9 20.379-3.32 11.378-.48 23.23 8.06 30.812 4.73 4.27 23.69 23.699 43.12 45.027 1.43 1.903 6.64 8.539 12.8 26.539 11.38 50.723 22.28 101.442 33.18 152.622l.48 1.91c-12.33 5.211-21.33 10.422-27.49 15.16-5.22 4.269-8.54 10.43-9.01 17.058-3.8 55.934-30.81 110.911-36.97 120.872-4.27 5.679-5.69 12.789-4.27 19.429 2.37 10.422 11.85 18.012 22.28 18.492l73.46 4.739h1.43c6.63 0 12.79-2.84 17.06-7.59.95-.949 1.89-2.36 2.84-3.789 0 0 15.65 71.09 23.23 106.648 1.42 13.742.47 21.332 0 22.742-6.16 13.75-13.75 29.399-21.8 44.571 0 0 0 .457-.48.457-5.21 9.011-5.21 19.922-.47 28.922 3.79 7.578 10.9 13.269 19.9 16.109 4.27 1.43 19.44 5.219 38.87 5.219 26.07 0 48.35-6.637 66.84-19.91 27.49 16.121 54.03 19.433 72.51 19.433 22.76 0 37.45-5.211 39.34-6.16 9.48-3.312 17.07-10.902 19.91-20.852 2.84-9.949.95-19.91-4.74-27.488 3.8-1.433 7.11-3.793 9.96-6.64l39.33-44.551c0 3.789-.47 6.629-.94 8.531-6.17 14.219-14.22 30.328-22.28 45.5 0 0 0 .477-.48.477-4.73 9-5.21 19.902-.47 28.902 3.79 7.59 10.9 13.75 19.91 16.598 4.74 1.421 19.43 5.211 38.86 5.211 25.6 0 48.35-7.11 66.84-20.379 27.49 16.109 53.55 19.898 72.04 19.898 21.81 0 36.49-5.199 39.35-6.16 9.95-3.789 17.53-11.848 20.38-21.328 3.31-10.422.47-21.789-7.59-29.852 0 0 0 0-.47-.48-.96-.949-21.81-22.75-42.67-47.867-.94-1.43-5.68-7.11-10.42-21.813-.47-2.359-1.42-4.73-1.9-7.109-3.31-17.059-7.11-34.121-10.42-51.192l100.48-18.949c6.64-1.43 12.32-5.219 15.64-10.898 3.32-5.7 4.27-12.801 2.38-18.969-1.91-6.16-4.27-8.524-9.96-14.223-64.94-65.867-112.34-130.34-132.72-181.527-2.36-6.633-7.58-11.383-14.22-13.75-.95-.473-6.63-2.363-17.06-4.731-10.43-49.769-20.86-99.07-31.28-148.832 0-.48-.48-1.429-.48-2.379-.94-13.738.95-18.48.95-18.48 9.95-24.168 21.33-45.98 22.75-48.34 4.74-9.019 4.74-19.91 0-28.441-4.26-8.071-11.84-14.219-21.32-16.117-2.38 1.89-13.75 0-27.97 0m391.98-35.551c-5.21 0-9.95.48-15.17.949-18.95 1.891-44.08 9-65.87 27.969-18.49-9.489-38.87-14.219-59.73-14.219-4.27 0-8.54 0-12.79.469-20.39 1.902-34.61 7.582-38.4 9.48-9.48 4.27-16.12 12.321-18.96 21.332-3.32 10.899 0 22.75 8.06 30.328 0 .481.47.481.47.481s21.34 20.851 42.18 44.082c7.11 8.058 14.22 31.277 17.07 45.5.95 3.789 88.64 437.957 88.64 437.957-12.33-1.418-22.29-4.27-28.92-7.109-15.64-7.11-38.87-23.7-50.24-32.231-6.16-4.75-13.27-7.109-21.33-7.109-1.43 0-2.84 0-4.27.468-9.47.954-18.01 6.161-23.7 13.274 0 .476-.47.476-.47.949-12.8 18.961-23.7 56.879 5.22 93.848-13.75 26.543-9.49 56.883 2.84 77.261 4.27 7.11 11.38 12.801 20.38 15.168 3.32.954 6.16 1.411 9.48 1.411 5.22 0 9.95-.938 14.69-3.309 4.27-1.898 25.6-11.371 52.14-16.121 3.32-.469 13.27-1.891 36.97-2.84 14.7 0 162.58.481 186.28.481h2.84c23.22.941 34.12 2.359 38.39 3.32 30.81 5.68 58.78 17.058 60.67 17.531 0 0 .47 0 .47.481 4.27 1.89 8.54 2.839 13.27 2.839 5.22 0 10.43-.949 15.17-3.32 9.48-4.742 16.59-13.742 18.49-23.691 3.32-18.02-.47-53.09-29.39-81.539 9.48-28.442 4.27-64.45-28.44-93.371-6.16-5.211-14.21-8.528-22.27-8.528-.95 0-2.37 0-3.8 0-9 .949-17.53 5.207-23.22 12.317-9.48 11.863-23.7 26.082-33.18 31.761-1.42.95-9.96 5.68-34.6 8.059-6.64-33.66-94.32-473.988-96.22-484.887-.94-15.16.95-20.383.95-20.383 8.54-21.328 18.01-41.23 22.76-51.187 0 0 0-.473.46-.473 4.27-9 4.27-18.957 0-27.488-4.26-9-12.32-15.16-22.27-17.07-4.27-1.411-12.79-2.84-24.65-2.84"/><path d="m517.93 952.711c14.699 0 27.968 8.519 39.82 23.687-2.848-6.16-6.164-12.328-9.957-17.527-14.219-21.34-31.758-34.609-51.664-36.512-2.367-.461-4.742-.461-7.109-.461-33.653 0-63.04 22.743-52.141 69.661 10.43 45.031 46.449 69.681 79.629 69.681 17.066 0 31.285-8.05 42.187-20.85-4.265-18.96-8.535-37.45-13.269-55.941-7.117 20.861-20.383 44.091-42.188 44.091-11.851 0-20.383-10.9-23.695-25.12-8.059-32.24 15.637-50.709 38.387-50.709"/><path d="m905.648 926.16h-53.558c6.637 6.172 13.269 27.488 15.168 35.551l3.793 16.578h-33.18l-3.793-16.109c-1.894-8.532-5.215-29.848-1.422-36.02h-54.035c6.637 6.172 13.274 27.488 15.168 35.551l13.27 58.299c1.894 8.53 5.214 29.85 1.421 35.55h53.563c-6.637-5.7-13.273-27.02-15.168-36.03l-3.793-16.59h33.18l3.793 16.59c1.894 8.54 5.215 29.87 1.422 35.55h54.031c-6.637-5.68-13.274-27.01-15.164-36.02l-13.274-57.83c-2.367-8.05-5.215-28.898-1.422-35.07"/><path d="m1223.22 980.199-1.9 40.761-20.86-40.761zm42.18 44.071 2.85-61.141c.47-11.379 3.79-32.231 11.84-36.5h-63.98c3.79 1.902 6.63 9.48 7.58 13.75 1.42 5.223 1.42 9.953.95 14.691h-36.97c-2.37-4.738-4.27-9-5.69-14.218-.95-4.27-1.9-11.84.95-14.223h-45.98c10.9 5.223 23.23 26.082 29.39 37.922l30.33 59.249c2.37 5.22 6.17 14.22 7.11 19.9.95 4.27 1.43 9.02.95 13.27h67.78c-2.37-4.25-3.79-9-5.22-13.27-.94-5.68-1.89-14.68-1.89-19.43"/><path d="m1609.99 1013.37c1.89 9-7.11 11.85-12.33 11.85h-16.59l-6.16-25.591h17.54c6.63-.481 15.17 3.311 17.54 13.741m27.01-78.198c3.32 0 7.58.937 10.91 3.789-6.64-12.801-20.39-16.602-30.34-16.602-22.28 0-45.98 14.223-43.61 44.571h-6.16c-1.42-9.969-7.11-33.192-2.37-40.77h-53.56c6.64 6.172 13.27 26.551 15.17 35.551l13.27 58.769c1.9 9 5.21 29.38 1.42 36.03h73.94c19.91 0 38.87-12.81 32.24-41.71-4.75-19.921-18.49-35.55-34.61-42.191 3.32-15.168 8.06-37.437 23.7-37.437"/><path d="m1985.38 987.781c-.95-2.851-2.37-5.691-3.32-8.062-2.84-6.629-5.69-13.27-8.53-19.899l-14.22-33.66h-87.69c6.64 6.172 13.27 27.488 15.17 36.02l13.75 59.73c1.89 8.05 4.73 27.95.94 33.65h57.83c-8.06-8.06-14.22-25.6-17.06-36.03l-13.75-60.19h18.01c14.69.48 31.28 9.949 38.87 28.441"/><path d="m2261.23 990.621c-3.79-17.531-3.79-37.441 12.8-37.441 17.06 0 26.55 19.429 30.81 37.441 4.27 19.429 5.69 39.339-13.27 39.339-18.48 0-26.07-20.38-30.34-39.339m35.08-62.09c-9.48-4.269-19.44-6.172-28.92-6.172-9.47 0-18.48 1.903-26.06 6.172-18.96 9.949-31.76 32.699-24.65 62.571 7.11 30.808 31.76 54.028 55.46 63.508 9.47 3.31 18.48 5.22 27.01 5.22 9 0 17.07-1.91 24.65-5.22 19.43-9.48 33.18-32.7 26.07-63.508-7.11-29.872-30.34-52.622-53.56-62.571"/><path d="m2698.72 995.832c-2.37 7.108-7.11 15.648-12.32 20.378-2.38 2.38-8.06 6.16-11.38 6.16h-7.11l-13.75-60.19c-1.89-8.532-5.2-29.848-1.42-36.02h-56.4c6.64 6.172 13.27 27.961 15.16 36.969l13.75 59.241h-8.05c-3.32 0-10.91-3.78-14.7-6.16-7.11-4.26-15.64-13.74-20.38-20.851l26.07 60.671h92.9z"/><path d="m3045.67 995.832c-2.37 7.108-7.11 15.648-12.32 20.378-2.37 2.38-8.06 6.16-11.38 6.16h-7.11l-13.74-60.19c-1.89-8.532-5.21-29.848-1.42-36.02h-56.41c6.64 6.172 13.27 27.961 15.17 36.969l13.75 59.241h-8.06c-3.32 0-10.9-3.78-14.7-6.16-7.11-4.26-15.63-13.74-20.38-20.851l26.08 60.671h92.9z"/><path d="m3394.05 990.621s-.48 0-13.27-30.801l-13.75-33.191h-101.9c6.64 5.703 13.27 27.973 15.16 36.5l13.27 56.881c1.9 8.53 5.7 30.33 1.43 36.5h98.12l-9.97-44.09c-.94 8.06-12.32 10.43-18 10.43h-30.81l-4.27-18c6.16 0 19.43-.48 25.13 7.1l-9.01-39.341c-1.9 7.59-13.27 8.532-19.43 8.532h-1.9l-4.74-21.321h29.38c15.65 0 32.24 13.739 44.56 30.801"/><path d="m2020.93 446.961c19.9 22.281 39.81 41.711 39.81 42.187 8.54 8.063 11.38 20.383 8.06 31.282-2.84 9.48-10.9 17.539-20.86 21.332-3.79 1.429-17.06 5.687-36.96 5.687h-1.43c-17.06 0-40.76-3.32-66.36-17.07-17.06 11.863-38.39 17.543-62.57 18.019-18 0-32.7-3.796-36.96-4.75-8.53-2.839-16.12-8.519-19.91-16.589-4.74-9.469-4.74-20.379.47-29.379 0 0 10.91-19.442 20.39-40.758.47-1.422 1.42-6.641.47-17.543l-28.44-129.399c-8.53-1.41-18.01-1.89-27.49-1.89-24.65 0-42.18 4.73-48.82 9-26.07 18.492-53.08 100.012-35.55 180.59 20.38 91.48 63.04 153.57 130.35 190.539 19.9 10.422 43.6 17.531 69.67 21.332 3.79.469 7.58.949 11.85 1.418 26.54 0 46.92-2.36 53.56-4.739 28.44-9.949 53.09-19.898 53.56-20.378 4.27-1.891 9-2.84 13.75-2.84 10.42 0 20.38 4.269 27.01 12.32 2.37 2.848 22.76 28.438 13.75 60.668-1.89 6.16-4.27 11.371-7.59 16.59 33.19 30.808 28.44 66.359 22.28 79.152-3.79 8.539-10.9 14.699-20.38 18.02-3.79 1.41-7.58 1.886-11.38 1.886-4.26 0-9-.949-12.79-2.367-.48 0-29.39-11.383-62.57-21.801-4.74-1.421-17.54-4.742-45.5-8.05-19.43-.481-35.55-1.43-49.76-3.321-40.3-5.699-245.06-43.621-341.75-252.16-2.37-2.84-3.79-5.699-5.21-9.488-.48-.941-9.96-25.59-43.14-42.18-11.37-5.691-18.48-17.062-18.48-29.39 0-12.321 7.58-23.7 19.44-28.911 8.53-3.789 12.79-9.011 14.21-17.058-8.06-64.473-3.79-153.57 57.83-215.672 36.97-36.961 78.68-49.762 95.27-53.551 15.17-3.32 30.81-4.738 47.87-4.738h2.84c27.5.469 53.57 4.738 76.32 8.527h.94c14.7 2.371 31.29 5.211 42.66 5.211 7.11 0 9.01-.949 9.01-.949.95-.941 1.89-1.891 2.37-2.371 20.38-24.168 49.77-37.438 85.79-37.918h1.9c21.33 0 36.97 4.75 37.44 4.75 9 2.371 16.59 8.531 20.38 16.59 4.74 9 4.74 20.379-.47 29.379-1.43 2.371-12.32 22.75-22.28 45.031 0 0-.95 2.84-.95 10.898 12.32 55.461 24.65 110.911 36.49 166.371 6.16 9.481 9.48 16.11 11.86 18.481m-574.47 115.66c11.85 53.551 23.7 106.641 35.08 160.199.47 2.371.95 4.739 1.89 7.11 5.22 13.269 9.48 18.961 10.43 19.91 21.33 24.64 43.13 45.969 43.13 46.449 8.06 8.063 11.38 20.383 8.06 31.281-2.84 9.95-10.9 17.539-20.86 21.328-2.84.954-17.53 5.692-38.86 5.692-18.49 0-45.03-3.801-72.52-19.43-18.01 12.789-40.76 19.43-66.36 19.43-21.33 0-37.44-4.738-39.34-5.211-9-2.848-16.11-9.008-20.38-16.598-4.74-9-4.74-19.902.47-29.383 0 0 11.85-21.328 22.28-45.507 1.9-5.211.48-25.11-2.84-39.809-.48-1.422-.48-3.312-.48-4.742-10.9-50.711-22.27-101.899-33.65-153.09-6.64-9.961-18.01-23.711-38.39-34.141-11.38-5.679-18.01-17.058-18.01-28.898 0-12.332 8.05-23.699 19.91-28.922 7.58-3.32 11.84-8.051 13.27-15.16-10.91-50.719-22.28-101.91-33.18-153.098-.48-1.422-.95-2.84-1.43-4.742-2.84-13.75-10.42-37.449-18.48-46.918-21.81-26.539-43.13-49.769-43.61-50.242-8.05-8.539-10.43-19.918-7.11-30.809 3.32-10.429 11.38-18.488 21.81-21.328 2.84-.953 13.74-3.801 30.33-3.801 2.84 0 5.69 0 9.01.481 18.48.937 45.03 6.637 72.52 24.168 16.59-10.899 36.97-16.578 59.72-16.578h7.11c20.38.937 36.02 6.16 38.86 7.097 8.53 2.852 15.64 9.012 19.44 16.59 4.74 9.481 4.26 20.383-.48 29.391-.47.949-11.85 21.332-22.27 44.07 0 0-1.43 4.27-.48 17.07 0 0 .48 1.418.48 2.372 11.84 53.558 23.69 107.117 35.07 160.679.95 1.899 1.42 3.789 2.37 5.68.47.961 8.06 26.551 39.81 39.348 11.38 4.742 19.44 14.691 20.86 26.062 1.42 12.328-4.74 24.649-15.64 31.289-18.49 10.899-17.54 27.488-17.54 28.91-.47.95 0 2.371 0 3.801m2203.54 225.141c0 11.367-5.68 22.269-15.64 28.429-5.69 3.797-12.33 5.7-18.96 5.7-4.74 0-9.48-.95-13.75-2.852-2.36-.949-30.33-12.32-55.93-12.32-8.52 1.422-18.48 4.742-29.86 8.531l-.95.469c-21.79 7.113-51.19 17.062-92.42 21.332-9 .949-18.49 1.418-27.49 1.418h-.95c-88.16 0-200.02-46.449-224.67-177.739-12.8-69.671 16.12-128.921 40.77-167.789 2.37-9.48-.95-14.703-4.27-18.011-8.54-9.961-10.43-23.7-4.74-36.02 5.22-10.43 15.64-18.012 27.49-19.441 37.92-4.727 60.67-25.11 67.78-32.219 18.48-25.602 46.92-102.859 36.97-141.73-4.74-18.008-16.59-37.438-27.49-37.438-.95 0-1.9 0-3.32.477-34.6 7.113-72.99 28.902-110.43 63.5-12.33 15.652-26.08 40.761-32.24 53.57-4.27 9-12.32 15.633-22.27 18.48-3.32.95-6.64 1.422-9.95 1.422-7.11 0-13.75-2.359-19.92-6.16-8.05-5.691-15.16-12.801-21.32-20.383-10.9-12.797-18.96-28.437-23.23-44.078-5.21-17.539-4.74-37.449.47-55.461-42.18-24.168-50.23-67.777-47.87-90.051.95-10.429 7.59-20.378 17.06-25.597 5.69-3.321 12.33-5.2112 18.49-5.2112 7.59 0 15.17 3.3202 22.28 5.2112 16.12 4.269 32.71 7.109 49.77 7.109 4.73 0 9.48-.469 13.27-.949 4.74-.469 19.9-3.32 51.66-14.6915 7.59-3.3203 18.49-8.0586 28.44-12.8007l6.64-3.3204c17.06-8.0468 34.6-16.1093 49.29-21.789 13.28-5.2188 27.02-10.4297 40.77-15.1797 19.43-6.6289 39.33-12.7891 59.24-18.0078 7.11-1.8906 14.22-3.3203 20.85-5.211 7.11-1.9023 15.17-4.2695 22.76-4.2695 11.38 0 21.33 5.6875 27.49 14.6992 3.79 5.6797 36.49 59.2383 54.51 160.6794 14.69 81.989.47 173-36.97 237.461-8.54 14.699-4.27 23.219 1.41 29.86 8.54 9.961 9.96 23.711 4.75 35.55-5.22 10.899-15.64 18.489-27.49 20.379-27.02 3.789-63.52 27.969-87.22 57.36-14.69 18.48-19.9 41.23-16.11 67.3 5.21 34.602 38.87 50.239 67.77 50.239h3.8c38.39-1.887 69.67-22.278 78.2-32.227 9.49-11.851 17.54-38.39 19.44-46.453 2.84-11.367 10.9-20.379 21.8-24.18 3.79-1.41 8.06-2.359 12.33-2.359 7.58 0 15.17 2.359 20.85 7.109 20.86 16.11 53.56 58.77 44.08 112.332 35.55 24.649 45.03 63.989 45.03 85.321m-2474.66-297.66c1.43 12.32-4.73 24.168-15.64 30.808-10.42 6.149-16.58 14.692-17.53 24.641 12.32 57.347 24.64 114.711 36.97 172.058 5.68 16.11 10.43 22.75 11.85 24.172 19.9 23.219 39.34 43.598 43.13 47.399 8.06 8.062 10.9 20.379 8.06 30.808-2.85 9.953-10.91 18.012-20.86 21.332-3.79 1.418-18.01 5.68-38.86 5.68-18.49 0-45.03-3.789-72.52-20.379-18.02 12.809-40.77 19.91-66.36 19.91-21.33 0-37.45-5.211-39.34-5.691-9.006-2.84-16.119-9-19.908-17.059-4.742-9-4.269-19.91.473-28.922 1.894-3.777 12.797-24.168 22.275-46.918 1.89-5.679.47-26.543-2.84-41.711 0-.949-.48-1.89-.48-2.839-10.424-47.871-20.377-96.219-30.807-144.571-11.851 55.461-23.699 110.922-35.547 166.371-2.371 22.75-.945 30.34-.472 31.75 2.839 11.379 13.746 27.028 17.535 31.758 7.582 9.012 9.48 20.86 5.687 31.762-3.789 9.48-11.851 17.059-22.273 20.379-2.848.949-12.324 3.32-27.02 3.32-17.062 0-41.238-3.789-66.832-18.949-18.957 13.738-42.66 20.848-70.148 20.848-22.75 0-40.762-5.688-41.238-5.688-9.008-2.851-16.59-9.012-20.852-17.07-4.742-9-4.742-19.903 0-28.903 0-.476 11.844-23.238 22.273-48.816.95-2.383 2.368-13.75-1.421-36.512-10.903-54.031-22.274-108.531-33.653-163.519-2.371-6.16-13.269-28.91-43.605-46.93-10.426-6.16-16.586-17.062-16.586-28.43 0-12.8 7.105-23.691 18.484-29.39 4.262-1.891 17.063-8.051 15.641-24.653-12.324-60.656-24.649-121.328-36.5-182.476-6.637-22.274-12.324-31.75-14.219-34.602-19.906-27.019-39.816-51.672-43.605-56.398-7.11-8.543-9.481-19.902-6.633-29.871 2.84-10.891 11.371-19.4299 22.75-22.2697 2.367-.4727 10.902-2.8399 24.172-2.8399 5.211 0 10.425.4805 16.113.9375 18.488 2.3828 44.555 9.4922 72.047 29.3911 15.168-9.469 33.179-14.219 52.613-14.219 4.738 0 9.477.48 14.219.949 20.851 2.371 36.972 9 38.867 9.961 8.055 3.309 14.691 9.469 18.012 17.531 4.261 9.477 4.261 19.906-.953 28.438 0 0-11.844 21.8-21.801 45.968-.949 2.383-1.895 12.332.945 33.192 12.324 61.14 25.125 123.23 37.922 185.32 12.797-59.25 26.07-119.449 39.34-179.16 3.797-27.969 1.894-37.441 1.422-38.398-2.367-10.422-12.324-26.532-18.489-34.122-7.105-9.011-9.003-20.859-4.734-31.281 3.789-10.429 12.797-17.539 24.172-19.91 1.426-.469 7.582-1.418 16.59-1.418 3.789 0 7.109 0 10.902.469 16.113 1.43 39.813 7.109 63.985 23.219 15.64-9.469 34.127-14.219 54.977-14.219 3.8 0 7.59 0 10.91.48 20.38 1.422 35.54 7.11 38.86 8.532 8.53 3.32 15.17 9.48 18.96 17.07 4.74 9.469 4.27 20.379-.94 28.898-.96 2.379-12.33 22.282-21.81 44.559-.47 1.902-1.89 9.961 0 26.07 12.32 58.301 24.65 116.602 36.97 174.422 4.27 8.539 14.22 23.231 38.4 33.66 9.95 5.211 17.53 14.688 18.95 26.071m-642.711-313.301c-6.637 16.109-19.91 63.5-21.805 70.14-.476 1.43-.953 2.848-1.426 4.27-23.222 92.418-46.921 187.219-70.144 281.551 43.601 46.437 88.156 93.84 133.66 140.289 9.004 9.008 18.961 18.48 27.965 27.5 8.531 7.578 16.586 15.629 24.648 22.738 30.332 27.02 64.934 49.77 65.407 50.25 10.429 7.109 16.117 18.961 14.695 31.281-1.418 11.852-9.481 22.282-21.328 27.02-3.793 1.422-18.012 6.16-40.293 6.16-16.586 0-41.707-3.32-70.145-16.109-13.273 8.519-29.863 13.269-48.347 13.269h-.946c-14.222 0-25.121-2.851-27.019-3.32-15.641-4.27-26.067-18.008-25.594-33.649 0 0 .477-17.07-7.586-31.761-3.789-7.11-15.641-24.168-50.238-64.93-33.656-36.031-67.309-72.52-100.012-109.031 6.637 34.613 12.797 69.211 19.434 103.812 5.211 18.489 10.425 30.328 14.218 34.598 21.329 28.441 42.184 53.09 43.129 54.031 7.11 8.531 9.485 19.442 7.11 29.871-2.84 10.418-9.949 18.481-19.903 22.739-3.793 1.429-18.484 6.64-39.343 6.64h-.95c-18.48 0-45.023-4.269-72.519-22.75-18.008 14.219-40.762 21.801-65.879 21.801h-.949c-22.278 0-38.864-6.16-40.289-6.641-8.532-3.308-15.641-9.949-19.434-18.48-3.789-8.531-3.789-18.488.473-27.488 1.426-2.84 12.324-27.012 22.281-54.5.945-2.383 2.84-15.172-.477-40.301-11.375-61.61-22.753-124.18-33.652-186.75-3.793-9.481-15.644-35.071-44.0819-54.031-9.9493-6.629-15.6368-17.54-15.6368-29.379 0-12.809 7.5821-24.172 18.9571-29.871 12.8008-5.68 15.1676-19.43 14.6956-30.329-10.9066-60.671-21.3284-122.281-32.2347-183.91-2.8437-17.062-10.9023-48.812-19.4336-62.09-20.3789-32.2301-40.7617-61.6207-43.12889-64.941-6.160154-8.5195-8.0625-18.9492-5.21484-28.8984 2.84375-11.3828 11.84763-20.38285 23.22263-23.23051 2.375-.47265 9.4844-2.37109 19.9063-2.37109 7.1094 0 14.2187.46875 21.3281 1.89844 18.0156 3.32031 44.086 12.32036 71.102 35.54296 13.746-8.5195 29.863-13.2695 47.394-13.2695 6.164 0 12.801.4765 19.438 1.8984 20.379 3.3203 36.023 11.3711 38.867 12.8008 7.582 3.7891 13.742 10.4297 17.062 18.4883 3.789 9 3.317 19.4297-.945 27.4922-1.426 2.3593-12.324 24.6404-22.281 50.2384-.473 1.89-1.895 9.949-.473 26.539 10.902 59.723 21.328 118.973 32.231 177.742 10.429 11.848 20.855 24.18 31.285 36.02 13.746-64.93 27.015-128.922 40.761-192.911 1.895-19.429 1.895-31.761.473-36.968-2.848-13.27-13.273-31.282-18.961-40.282l-.473-.48c-5.687-9.0078-7.109-19.8984-3.792-29.8711 3.792-10.8906 13.269-18.9492 24.648-20.8476 1.422-.4727 5.687-.9415 11.848-.9415 5.214 0 10.425.4688 15.64.9415 16.594 2.3789 39.817 9.4882 63.989 28.4375 14.218-8.5274 31.281-12.7891 50.242-12.7891 6.16 0 12.324.4687 18.484 1.4219 20.856 2.8398 37.445 9.4804 40.762 10.8984 9.008 3.7891 16.121 11.3711 19.433 20.379 3.793 10.902 1.903 22.75-5.211 31.281 0 1.899-15.64 20.852-24.644 43.141"/></g><path d="m2043.68 506.211c1.9 1.898 2.84 4.738 1.9 7.109-.95 2.371-2.85 4.739-5.7 5.692-.94.468-12.32 4.258-28.9 4.258-18.02 0-43.62-3.79-69.21-22.75-18.01 18.96-42.18 23.699-60.2 23.699-16.58 0-29.38-3.789-29.85-3.789-2.37-.95-4.75-2.371-5.69-4.27-.95-1.89-.95-4.262 0-6.629 0 0 11.37-20.383 21.8-43.133 2.84-6.16 3.32-16.589 1.9-30.808-10.9-48.82-21.33-97.641-32.23-146.461-14.22-3.32-30.82-5.207-46.93-5.207-27.49 0-51.19 5.207-63.51 13.738-36.97 26.07-63.99 119.922-45.03 205.711 21.8 98.578 68.73 166.371 142.67 206.649 22.75 11.859 48.82 19.91 77.73 23.699 4.74.48 9.01.953 14.22 1.429 21.81 0 49.77-1.898 62.57-6.16 29.38-9.957 54.5-20.859 54.98-20.859 4.74-1.899 9.95-.949 12.79 2.84.48.953 14.7 18.019 9.01 38.871-2.85 9.961-9.96 18.961-20.85 27.019 52.6 28.903 36.97 65.411 36.97 65.879-.95 2.371-2.84 3.793-5.69 4.742-2.37.95-5.69.95-8.06 0-.47 0-29.86-11.371-63.52-22.269-10.42-3.32-27.96-6.641-51.18-9.02-18.96-.472-34.13-1.41-47.88-3.312-38.39-5.207-233.67-39.809-324.67-241.738-1.42-.942-2.37-2.36-2.84-3.782 0-.468-11.85-34.597-55.46-55.929-2.84-1.43-5.22-4.27-4.74-7.11 0-2.84 1.9-5.699 5.21-7.109 21.81-9.481 27.97-26.539 28.92-39.352-26.55-206.179 117.54-241.73 134.13-245.507 14.22-2.852 28.91-4.27 45.51-4.27 26.06.477 51.66 4.727 73.94 8.047 17.06 2.851 33.65 5.703 46.45 5.703 13.27 0 21.32-2.852 27.02-8.543.94-.937 1.89-1.891 2.36-2.367 19.91-24.652 47.87-29.863 68.25-30.332 18.02 0 31.76 3.789 32.24 3.789 2.84.941 4.74 2.371 5.68 4.262.95 1.898.95 4.269 0 6.64 0 .469-12.32 22.278-23.22 46.93-1.43 3.789-3.32 10.418-2.84 23.687 12.32 56.883 25.12 113.282 37.44 170.172 4.74 12.789 9.48 22.27 14.7 28.43 19.43 21.332 39.81 41.23 39.81 41.711" fill="#100f0d"/><path d="m677.668 793.449c2.84 1.891 4.262 5.199 3.785 8.063-.473 3.308-2.367 5.679-5.687 7.097-1.418.473-12.797 4.743-32.231 4.743-17.062 0-43.129-3.793-73.941-20.852-9.949 11.852-25.594 18.012-45.5 18.012-11.848 0-20.856-2.371-21.328-2.371-4.739-.95-7.586-5.219-7.586-9.012 0-.481.949-22.75-10.422-43.598-9.485-18.492-43.61-58.301-53.563-69.679-51.664-56.872-104.277-114.711-156.886-174.903 11.847 63.992 23.695 127.5 35.543 190.551 5.214 19.43 11.851 35.059 18.015 43.602 22.274 29.378 44.082 54.98 44.082 55.457 1.895 2.363 2.84 5.203 1.895 8.05-.949 2.852-2.848 5.223-5.692 6.172-1.418.469-12.797 5.207-30.808 4.731-19.434 0-46.922-5.68-74.887-30.813-19.434 24.653-45.031 29.871-64.465 29.871-18.008 0-31.277-5.218-32.23-5.218-2.367-.954-4.739-2.84-5.684-5.211-.945-2.379-.945-5.219 0-7.582 0-.477 12.324-26.539 23.223-56.411 3.32-9.476 3.793-28.91.472-52.617-11.371-62.551-22.75-125.601-34.125-189.109-3.789-10.902-18.011-43.613-54.0347-67.781-3.3203-1.891-4.7383-5.68-4.7383-9 0-3.321 1.8984-6.641 5.2148-8.059 27.4882-12.801 29.3832-42.191 28.9102-54.98-10.898-61.141-21.801-123.243-32.707-185.332-2.3672-13.27-10.8985-51.661-22.7461-71.098-21.8047-34.1329-43.6055-65.4103-43.6055-65.8907-1.8984-2.8399-2.8476-6.1602-1.8984-9 .9453-2.8399 2.8476-5.211 5.6875-5.6797 1.4218-.4805 12.7968-2.8399 30.8125 0 18.957 3.3203 46.449 14.2187 73.937 44.0781 18.961-22.2891 45.032-23.2305 63.989-19.9102 18.011 2.8399 31.281 9.9493 31.754 10.4297 2.375 1.4102 4.742 3.7891 5.691 6.1602.945 2.8398.945 5.2109 0 7.582 0 .4805-12.324 24.1797-23.223 52.1406-2.847 7.109-3.32 20.859-1.902 38.387 11.379 62.09 22.281 124.179 33.652 185.332 22.282 26.07 45.032 52.14 67.305 77.25 17.067-81.039 34.133-161.621 51.192-241.25 2.371-20.379 2.371-36.492.476-45.512-4.738-22.269-22.277-48.8085-22.75-48.8085-1.898-2.8516-2.371-5.6914-1.422-8.5313.949-2.8476 3.317-4.75 6.164-5.2109.946 0 8.528-1.4297 19.903.4609 17.062 2.3828 41.711 10.9024 66.363 35.5508 19.426-19.8984 46.449-21.3281 66.828-18.4805 18.957 2.3711 33.652 9.0115 34.129 9.0115 2.84 1.41 5.207 3.789 6.16 6.629.945 2.84.473 5.692-1.422 7.59 0 0-18.012 21.789-28.441 47.871-7.582 18.949-22.278 72.52-22.75 72.988 0 .942-.473 1.422-.946 1.891-24.648 97.648-49.296 196.711-73.941 296.719 47.399 51.66 95.27 101.902 143.141 150.722 9.004 9.008 18.961 18.969 28.437 27.969 8.535 8.059 16.59 15.641 25.121 23.692 33.18 28.918 69.68 53.097 69.68 53.097" fill="#100f0d"/><path d="m2578.33 596.742c9 42.188 17.54 84.367 26.54 127.028.47 3.32 1.42 6.628 2.37 9.48 4.74 13.27 9.96 23.23 15.17 29.391 21.8 25.589 43.61 48.82 44.07 48.82 1.91 1.891 2.38 4.73 1.91 7.578-.95 2.371-2.85 4.742-5.69 5.691-1.42.469-12.8 4.731-30.82 4.731-18.95 0-46.92-4.731-74.41-26.539-19.43 21.808-45.5 26.539-64.93 26.539-18.02 0-31.28-4.262-31.76-4.262-2.37-.949-4.74-2.367-5.68-4.738-.96-1.891-.96-4.27 0-6.629 0-.48 12.31-22.75 23.69-48.352 6.16-13.75 1.42-44.55-.95-55.46 0-.469-.47-1.411 0-1.891-9.95-47.399-19.9-94.797-29.85-142.199 7.58-3.309 16.58-5.68 27.01-6.16 42.66-2.372 78.2 14.23 103.33 36.972" fill="#100f0d"/><path d="m1172.5 757.891c22.28 26.078 44.08 48.347 44.08 48.828 1.9 1.89 2.84 4.742 1.9 7.113-.95 2.359-2.85 4.738-5.69 5.68-1.42.476-12.8 4.269-30.81 4.269-18.96 0-46.93-4.742-74.89-26.539-19.43 21.328-45.03 26.059-64.46 26.059-18.01 0-31.28-4.262-32.23-4.262-2.85-.949-4.74-2.367-5.69-4.738-.95-1.903-.95-4.742 0-6.629 0 0 12.33-23.231 23.22-48.832 6.17-13.738.95-45.5-1.42-56.399 0-.48 0-.941 0-1.421-18.01-84.848-36.018-170.161-54.502-256.43-19.906 91.949-39.817 184.39-60.195 277.762-2.372 18.957-2.372 33.179-.473 41.238 4.734 19.902 22.746 41.699 22.746 41.699 1.898 2.383 2.375 5.223 1.422 7.59-.949 2.371-3.317 4.742-6.16 5.211-.95.48-8.532 2.371-20.383 2.371-17.535 0-43.129-4.742-68.727-25.602-19.906 22.282-47.394 27.5-68.25 27.5-18.961 0-33.652-4.269-34.129-4.738-2.843-.949-4.738-2.371-6.16-4.742-.945-2.367-.945-4.738 0-7.117 0-.473 12.321-24.172 23.223-50.711 3.793-9 3.793-27.492 0-50.242-11.375-54.977-22.75-110.43-34.125-165.887-2.367-7.113-15.168-37.442-54.981-61.141-2.847-1.902-4.742-4.75-4.742-8.062 0-3.321 1.895-6.16 4.742-7.11 29.86-13.75 30.332-39.347 29.383-50.25-12.324-61.14-24.648-122.757-36.969-184.379-5.687-19.421-11.847-34.121-18.484-43.121-22.281-29.867-44.082-56.89-44.082-57.359-1.894-2.371-2.844-5.211-1.894-8.059.949-2.371 2.839-4.73 5.687-5.211 1.422-.48 12.801-3.32 30.809-.949 18.957 2.379 46.925 10.899 74.418 36.5 18.953-20.851 45.023-22.761 64.457-20.851 18.011 1.89 31.757 7.582 32.23 8.05 2.848.95 4.742 3.309 5.688 5.211.949 2.368.949 4.75 0 7.118 0 .472-12.325 22.273-23.219 48.339-3.32 8.051-3.797 25.594-.477 46.454 20.383 100.007 40.762 199.078 61.145 297.66 21.328-97.641 42.656-194.813 63.984-291.032 2.848-21.789 3.321-38.859.949-47.871-4.738-19.898-22.753-43.597-22.753-43.597-1.891-2.371-2.368-5.223-1.418-7.59.945-2.363 3.316-4.274 6.16-4.731.949 0 8.531-1.429 20.383-.48 17.058 1.418 41.707 8.051 66.832 29.391 19.429-19.43 44.555-21.813 63.505-20.383 18.02 1.422 31.29 6.633 32.23 7.113 2.85.949 4.75 2.84 5.69 5.207.95 2.371.95 4.742 0 6.641 0 .461-12.32 21.8-23.22 46.922-3.32 7.109-3.79 21.328-1.43 39.339 12.8 59.719 25.13 118.969 37.92 178.219 5.22 11.84 18.49 33.172 51.2 47.871 3.31 1.418 5.21 4.27 5.68 7.11.48 2.839-.94 5.691-3.79 7.109-24.65 14.691-28.91 35.539-29.86 47.398 12.8 59.25 25.59 118.024 38.39 176.793 6.16 14.231 11.85 25.59 17.54 32.7" fill="#100f0d"/><path d="m1521.83 819.988c-.96 2.371-2.85 4.742-5.69 5.692-1.42.461-12.8 4.261-30.81 4.261-19.44 0-46.93-4.742-74.89-25.589-19.43 20.847-45.03 25.589-64.46 25.589-18.02 0-31.28-4.261-32.24-4.261-2.84-.95-4.73-2.379-5.68-4.739-.95-1.902-.95-4.269 0-6.64 0 0 12.32-22.281 23.22-47.391 6.17-13.75.95-44.09-1.42-54.519 0-.942 0-1.422 0-2.371-11.37-53.079-23.22-106.168-35.07-159.258-7.59-13.742-22.75-32.223-50.24-46.442-3.32-1.429-5.22-4.269-5.22-7.59 0-2.839 1.9-5.679 5.22-7.109 20.85-9 27.01-25.59 28.43-37.922-11.37-53.09-23.22-106.168-34.6-159.73-.47-.469-.94-1.418-.94-2.367 0-.473-8.53-39.332-23.23-57.352-22.28-26.551-44.08-50.719-44.55-51.191-1.9-2.368-2.85-4.739-1.9-7.11.95-2.367 2.85-4.258 5.69-5.207 1.42-.48 12.8-3.801 30.81-2.371 19.43 1.418 46.92 7.578 74.89 30.328 19.43-20.379 45.02-23.699 64.93-22.738 18.01.937 31.76 5.68 32.23 5.68 2.37.949 4.74 2.839 5.69 4.738.95 2.371.95 4.262 0 6.641 0 0-12.32 21.789-23.23 46.441-1.89 4.269-3.78 12.328-2.36 29.391 0 1.418.47 2.847.94 4.738 11.85 54.98 24.18 109.961 36.02 164.48.96.942 1.43 1.891 1.43 2.84 0 .469 9.95 37.922 54.51 55.93 3.31 1.422 5.21 3.781 5.68 6.64.48 2.84-.95 5.68-3.79 7.11-32.7 18.949-29.38 51.18-29.38 52.601 2.36 21.329 8.53 42.661 13.27 63.989 4.73 21.8 9.48 44.082 14.69 65.89 2.84 12.321 5.21 24.641 8.06 36.969.47 3.313 1.42 6.633 2.84 9.953 4.74 12.317 9.95 22.278 15.17 27.969 22.27 25.121 44.08 46.918 44.08 47.391 1.9 1.898 2.37 4.269 1.9 6.636" fill="#100f0d"/><path d="m2215.26 558.352c30.34 7.109 60.2 23.218 83.42 42.187 8.53 38.859 16.59 78.199 25.12 117.543 3.32 12.316 10.43 34.598 20.86 46.449 21.79 25.117 43.6 47.399 44.08 47.867 1.89 1.903 2.84 4.743 1.89 7.114-.94 2.379-2.85 4.738-5.69 5.687-1.41.481-12.79 4.262-30.81 4.742-18.95 0-46.92-4.742-74.41-25.589-19.44 21.328-45.03 26.058-64.46 26.058-18.01 0-31.29-4.269-31.75-4.269-2.38-.942-4.75-2.36-5.7-4.731-.94-1.898-.94-4.269 0-6.629 0 0 12.33-22.281 23.23-47.41 3.32-7.101 3.79-19.902 1.9-36.019-12.32-57.821-25.13-115.18-37.45-172.532 10.91-4.738 26.54-5.679 49.77-.468" fill="#100f0d"/><path d="m2102.93 477.301s7.58-7.582 38.39-18.492c0-1.887.47-3.309.47-4.739-12.32-57.351-25.12-114.218-37.44-171.578-5.22-16.594-11.85-29.383-18.01-36.492-22.28-24.648-44.08-45.98-44.08-45.98-1.9-1.891-2.85-4.27-1.9-7.11.95-2.371 2.84-4.73 5.68-5.691 1.43-.469 13.28-4.739 30.82-5.207 19.43-.481 46.92 3.308 74.89 23.226 19.43-21.328 45.5-27.027 64.93-27.968 18.01-.95 31.76 2.839 32.24 2.839 2.84.481 4.73 2.371 5.68 4.27.95 1.891.95 4.262 0 6.641 0 0-12.32 22.742-23.7 48.339-3.79 8.532-3.79 25.121-.47 45.5 10.42 48.821 21.33 97.641 31.76 146.461 14.68-2.359 30.8-4.738 48.34-6.629 39.34-4.742 73.94-7.589 104.27-8.062-9-41.238-17.53-82.949-26.54-124.188-.48-.472-.48-1.41-.48-1.89-2.36-10.903-10.42-41.231-22.74-54.5-21.81-24.18-44.08-45.512-44.08-45.512-1.9-1.898-2.84-4.269-1.9-7.109.95-2.371 2.84-4.739 5.69-5.68 1.42-.48 13.27-5.219 30.81-6.168 19.43-.941 46.92 1.898 74.89 21.797 19.43-22.27 45.5-28.91 64.93-30.328 18.01-1.422 31.28 1.89 32.24 1.89 2.36.481 4.73 2.379 5.68 4.27.95 1.898.95 4.269 0 6.641 0 0-12.32 23.687-23.7 50.238-1.9 4.262-3.79 12.801-2.36 29.859 0 .481 0 1.422.46 1.891 0 .949.48 1.902.48 2.851 11.37 54.508 23.23 109.02 34.6 163.52 19.44 3.32 29.39 7.109 29.39 7.109s-112.81 58.782-262.11 62.571c-149.31 4.269-206.66-16.59-207.13-16.59" fill="#100f0d"/><path d="m3625.83 787.762c0 3.32-1.89 6.636-4.75 8.527-2.84 1.902-6.63 2.359-9.47.953-.48 0-34.6-14.703-67.3-14.222-10.91 1.89-22.76 5.679-36.03 9.949-22.27 7.113-49.3 16.113-87.22 20.383-8.05.949-16.58 1.429-25.11 1.429-83.42.469-180.12-41.722-201.92-157.84-11.85-63.992 16.59-117.55 39.34-153.57 3.79-11.851 5.21-28.922-8.53-44.082-2.37-2.367-2.85-6.16-.95-9.48 1.42-3.321 4.74-5.688 8.53-6.168 46.93-6.161 75.36-32.219 83.42-40.762 21.81-28.438 54.51-114.688 42.19-163.52-5.69-22.75-24.17-59.718-55.93-55.449-.95 0-1.89.469-2.84.469-50.25 10.43-94.81 44.082-123.24 70.621-18.01 22.281-36.02 59.25-36.02 59.73-1.43 2.84-3.8 4.731-7.11 5.68-3.32.949-6.16.469-8.53-1.422-.48-.468-63.04-45.496-27.49-113.289-60.68-18.949-54.99-73.929-54.99-74.41.47-2.84 2.37-6.16 5.22-7.578 2.84-1.902 6.63-2.371 9.47-.941.48 0 45.03 16.109 85.32 10.89 11.85-1.418 32.23-7.109 56.88-16.109 7.59-3.321 18.49-8.059 29.38-13.27 18.49-8.5388 39.35-18.0193 54.98-24.6521 20.39-8.0586 41.72-15.6406 62.57-22.2695 15.65-4.75 31.28-9.4883 47.41-13.2774 7.57-1.9023 15.16-3.8007 22.74-5.2109 3.8-.4805 7.11.9492 8.53 3.3203 1.43 1.8906 33.19 53.0899 51.2 152.1406 13.27 75.84.46 161.629-34.13 221.359-8.53 14.68-14.69 36.008 4.26 57.821 2.38 2.84 2.84 6.629.95 9.949s-4.74 5.687-8.53 6.16c-33.18 4.27-75.84 32.238-102.86 66.359-18.48 23.7-26.06 53.079-20.85 85.79 7.58 48.82 54.98 73 96.69 71.101 44.55-2.371 82.95-25.59 95.75-41.242 15.16-18.957 24.18-55.93 24.18-55.93.94-3.32 3.31-6.16 6.63-7.578 3.32-1.422 7.11-.949 9.48 1.418 19.43 15.172 48.82 55.93 30.81 105.231 37.44 16.582 47.87 54.031 47.87 72.992" fill="#100f0d"/><path d="m2309.58 494.371c-148.83 3.789-206.65-16.59-206.65-16.59-4.75 70.141-41.72 135.071-41.72 133.66l74.42 4.731c-.47-4.262-.47-8.051.47-12.32 7.11-30.813 18.01-59.25 79.16-45.5 61.15 14.218 121.34 65.41 128.45 107.117 4.74 25.121-6.64 44.551-6.64 44.551l63.04 66.839 52.61-59.73s-32.23-34.117-41.7-69.199c-10.43-39.809 8.52-84.36 62.55-88.16 72.52-5.211 122.77 43.609 139.36 83.89l100.49-18.949c-.48-1.43-104.28-98.602-141.73-193.859 0 .468-112.8 59.718-262.11 63.519" fill="#d6dbdc"/><path d="m2369.31 619.961-22.29-95.742 51.19 45.031z" fill="#100f0d"/><path d="m2612.93 644.141c-16.59-40.289-66.84-89.11-139.36-83.891-2.84 0-5.2.469-8.05.941 28.44-12.32 100.01-30.812 159.26 54.981l38.39-5.211c-20.86-27.492-52.13-75.359-71.1-136.981.48.469.95 1.418.95 1.899 45.51 78.68 119.44 147.883 119.44 149.301zm-336.52-127.981-22.29 46.93c5.69 1.89 10.91 3.801 16.59 6.16l27.02-54.031c-7.11.472-14.21.941-21.32.941m18.95 65.41c6.63 3.789 12.79 7.59 18.49 11.86 76.31 55.929 55.93 113.281 55.93 113.281l27.49 32.711 26.07-22.293c-9.48-19.43-18.49-47.387-13.75-75.828.48 2.359.95 4.738 1.43 7.109 9 34.602 41.7 69.199 41.7 69.199l-52.61 59.723-63.04-66.832s10.9-19.43 6.64-44.559c-7.11-41.711-67.3-93.371-128.45-107.121-27.02-6.16-44.08-3.789-55.46 2.852l22.76-48.352c-26.54-2.371-48.83-5.211-64.94-8.531-2.84 45.031-15.17 83.422-15.17 83.422l19.43 5.687c5.22-9.476 13.75-18.957 27.49-22.757-7.1 9.007-10.42 20.859-13.27 33.191-.94 3.789-.94 8.047-.47 12.316l-74.42-4.738c.48.942 36.97-63.512 41.72-133.672 0 0 57.34 20.383 206.65 16.602 149.31-3.789 261.64-62.57 261.64-62.57-64.46 53.082-155.95 74.89-242.21 82zm51.66-57.351 22.29 95.75-45.98-44.559z" fill="#fff"/><path d="m3165.6 834.68c-.48 2.84-2.38 5.211-5.22 6.64-2.85 1.418-6.16 1.418-9.01 0-.47 0-31.28-13.269-65.88-19.429-9.01-1.903-23.7-2.852-42.19-3.321-9.95 0-177.74 0-189.59-.48-18.49.48-32.7 1.898-40.76 3.32-31.76 5.692-57.35 17.539-57.82 18.02-2.38.941-5.22 1.41-8.06.461-2.85-.942-4.75-2.371-6.16-4.262-8.07-13.738-15.65-44.09 7.58-67.309-44.55-38.871-16.6-77.73-16.12-78.199 1.42-2.371 4.27-3.789 7.11-3.789 2.84-.48 6.16.469 8.06 1.887.48.472 31.76 24.652 54.98 35.07 11.86 5.699 30.81 9.492 54.51 10.91h10.9c-.47-12.32-2.37-24.179-3.79-30.34 0-.949-88.63-437.007-88.63-437.48 0-.481-8.06-39.82-22.76-56.41-21.8-24.649-43.6-45.969-44.08-45.969-1.89-1.898-2.84-4.738-1.89-7.109.94-2.852 2.84-5.219 5.68-6.172 1.43-.457 13.27-5.68 30.81-7.571 18.97-1.906 46.93.461 74.42 19.903 19.43-24.172 45.5-32.231 64.94-34.121 18-1.91 31.28.941 31.75.941 2.85.469 4.74 1.899 5.69 4.258.95 2.383.95 4.75 0 7.113 0 .477-12.33 25.598-23.7 53.567-1.9 4.73-3.79 13.75-2.37 31.75v.953c0 1.429 85.79 430.847 97.16 489.617.48 3.801 1.43 7.113 2.38 10.43.47 1.89 1.42 3.793 1.89 5.222h16.12c22.75-1.902 39.34-6.172 48.82-11.851 18.01-10.91 38.87-36.969 39.34-37.45 1.89-2.371 4.26-3.789 7.58-3.789 2.85-.48 5.69.481 8.06 2.368 15.64 13.742 37.44 48.339 14.69 81.992 42.19 28.918 36.02 68.73 35.56 70.629" fill="#100f0d"/></g></svg>