<svg xmlns="http://www.w3.org/2000/svg" viewBox="0 0 230.454 122.963"><path d="M174.858 114.647h-.966v-.513h2.537v.513h-.967v2.691h-.604v-2.691zm2.187-.512h.925l.863 2.457h.024l.862-2.457h.927v3.204h-.607v-2.676h-.016l-.934 2.676h-.488l-.934-2.676h-.016v2.676h-.607v-3.204z" fill="#002b5c"/><path fill="#fdbb30" d="M202.662 65.034l27.792-3.329-27.199-6.742L221.341 45l-20.65.221 24.153-21.212-29.61 12.715 8.795-18.687-16.588 12.3 5.456-25.792-14.858 22.139-3.869-20.287-6.197 19.698-11.846-23.977 2.106 26.542L131.949 0l17.785 34.12-32.37-15.721 17.023 17.222h-7.094L86.399 25.58l20.796 10.041H41.44l-16.671 8.802-6.276 12.549H1.338l9.034 16.242-7.295 14.59 13.289 14.854h43.008l2.577-5.153 4.611 5.153h94.866l3.584-7.165 3.289 27.47 6.507-30.965 9.872 16.155V89.081l21.99 24.01-13.446-30.235 23.035 12.44-17.25-20.858 20.491 2.557z"/><path d="M165.451 33.751c-.324-.224-.6-.515-.889-.776.59-.434 1.691-.826 2.057-.942.363-.11.26-.318.162-.404-.098-.094-.568-.571-.756-.722a1.004 1.004 0 0 0-.247-.11 24.625 24.625 0 0 0-5.599 1.842 2.137 2.137 0 0 0-.101.405.56.56 0 0 0 .144.441c.15.184.635.652.725.75.09.096.307.206.457-.115.143-.3.732-1.312 1.249-1.889.364.381.739.744 1.13 1.106.241.307.09.501.02.608-.288.489-.749 1.405-.706 1.995.01.112.035.257.215.424.17.162.716.571.82.653.104.091.332.168.43-.171.09-.314.518-1.403.941-2.04a23.8 23.8 0 0 0 1.287.963c.27.275.156.479.107.596-.213.522-.529 1.499-.396 2.083.026.11.074.251.272.392.196.143.793.477.907.549.117.074.353.127.396-.231.047-.324.298-1.463.615-2.15.463.272.93.54 1.408.795.308.236.227.459.199.578-.136.552-.293 1.561-.073 2.128a.633.633 0 0 0 .323.363c.218.114.855.373.979.431.121.057.363.08.355-.28-.01-.335.069-1.506.279-2.229.475.205.967.402 1.462.592.38.203.334.441.32.574-.046.564-.048 1.597.249 2.135a.68.68 0 0 0 .375.317c.23.089.895.261 1.027.303.131.038.367.036.311-.326-.064-.328-.164-1.516-.07-2.264.512.15 1.025.291 1.544.413.386.152.376.395.39.525.035.574.188 1.6.564 2.099a.654.654 0 0 0 .417.27c.239.062.919.152 1.053.174.134.027.368-.011.251-.36-.105-.324-.387-1.493-.408-2.25a40.65 40.65 0 0 0 1.604.215c.383.105.408.345.436.471.127.567.436 1.573.879 2.022a.679.679 0 0 0 .449.215c.241.028.922.031 1.059.041.135.01.358-.065.191-.395-.152-.31-.604-1.435-.736-2.195.539.018 1.077.022 1.616.01.382.06.441.292.487.416.21.546.664 1.513 1.168 1.904a.667.667 0 0 0 .474.153c.243 0 .913-.085 1.046-.096.131-.006.346-.111.129-.419-.199-.286-.808-1.351-1.063-2.093.537-.05 1.063-.118 1.59-.197.39.007.48.233.543.349.288.522.883 1.429 1.439 1.752a.714.714 0 0 0 .492.1 5.25 5.25 0 0 0 .238-.049 24.573 24.573 0 0 1 2.992 12.865 24.6 24.6 0 0 1-2.509 9.859c-.171-.341-.493-.91-.555-1.028-.074-.144-.278-.331-.55.084-.244.384-1.209 1.667-1.956 2.36a33.576 33.576 0 0 0-.96-1.681c-.164-.442.054-.673.156-.808.477-.613 1.267-1.794 1.391-2.6a.808.808 0 0 0-.111-.602c-.149-.248-.645-.885-.733-1.016-.093-.135-.325-.28-.54.166-.195.416-.998 1.825-1.658 2.622a29.382 29.382 0 0 0-1.168-1.501c-.222-.411-.033-.674.059-.822.394-.677 1.034-1.949 1.057-2.764a.789.789 0 0 0-.189-.579c-.182-.22-.749-.768-.859-.883-.109-.111-.355-.222-.516.246-.145.444-.77 1.954-1.326 2.834-.429-.431-.87-.846-1.322-1.253-.316-.391-.157-.693-.085-.86.312-.724.794-2.072.712-2.874a.757.757 0 0 0-.259-.537c-.207-.189-.852-.636-.974-.734-.118-.098-.387-.165-.48.325-.092.453-.525 2.029-.972 2.986-.49-.367-.987-.715-1.485-1.041-.359-.33-.232-.646-.185-.824.222-.758.531-2.154.352-2.93a.727.727 0 0 0-.334-.483c-.23-.157-.926-.493-1.06-.572-.138-.077-.408-.103-.439.395-.035.456-.271 2.073-.599 3.072a29.575 29.575 0 0 0-1.639-.803c-.368-.264-.285-.583-.259-.757.126-.785.255-2.202-.021-2.937a.688.688 0 0 0-.392-.425c-.248-.118-.988-.343-1.129-.399-.143-.052-.422-.036-.391.455.021.458-.006 2.077-.207 3.114a27.974 27.974 0 0 0-1.756-.544c-.387-.201-.345-.524-.338-.697.027-.782-.025-2.207-.393-2.874a.667.667 0 0 0-.438-.361c-.27-.076-1.037-.187-1.186-.215-.153-.033-.422.028-.334.505.082.445.253 2.04.186 3.086a27.17 27.17 0 0 0-1.813-.258c-.42-.139-.418-.463-.438-.64-.072-.772-.297-2.149-.752-2.76a.665.665 0 0 0-.488-.284c-.273-.032-1.051-.019-1.211-.027-.15-.005-.415.092-.269.545.143.424.516 1.964.579 3.01a24.853 24.853 0 0 0-1.811.022c-.465-.059-.506-.389-.547-.561a11.235 11.235 0 0 0-.305-1.075l4.816-9.636H92.75l-9.674 5.106 2.553-5.106H42.552l-14.414 7.61-6.872 13.741H8.969L15.445 73.1l-6.99 13.985 9.918 11.086h38.228l4.29-8.582 7.677 8.582h27.618l6.592-3.479-1.74 3.479h57.616l4.719-9.436c1.68.376 3.413.616 5.193.691 16.204.681 29.888-11.906 30.566-28.107.561-13.328-7.676-25.035-19.463-29.038a24.716 24.716 0 0 1 8.117 5.623.531.531 0 0 0-.235.202c-.331.487-.404 1.248-.393 1.821.003.154.05.478-.624.589-.389.065-.793.058-1.191.068.023-.712.391-1.754.531-2.083.141-.327-.096-.401-.229-.4-.137.004-.814-.016-1.059.002a.628.628 0 0 0-.432.202c-.403.435-.59 1.174-.668 1.734-.018.153-.019.489-.711.511-.398.012-.801-.056-1.197-.094.135-.698.658-1.672.846-1.975.184-.306-.032-.411-.166-.422-.135-.016-.814-.123-1.06-.135a.637.637 0 0 0-.46.142c-.469.377-.768 1.078-.93 1.619-.043.148-.097.476-.791.407-.394-.039-.783-.16-1.176-.25.234-.667.904-1.557 1.139-1.827.234-.274.033-.404-.104-.436-.131-.035-.792-.224-1.035-.269a.67.67 0 0 0-.48.08c-.527.31-.928.96-1.174 1.473-.066.14-.164.444-.846.289-.394-.089-.768-.247-1.141-.386.338-.62 1.139-1.409 1.414-1.65.275-.242.089-.392-.035-.44-.127-.047-.758-.316-.995-.391a.642.642 0 0 0-.49.014c-.573.232-1.075.822-1.396 1.292-.087.131-.233.422-.893.182-.374-.137-.724-.349-1.078-.531.431-.569 1.355-1.237 1.663-1.439.311-.205.15-.377.031-.439-.118-.066-.711-.414-.93-.511a.657.657 0 0 0-.494-.049c-.607.156-1.196.673-1.59 1.093-.107.115-.296.376-.912.057-.355-.184-.68-.428-1.006-.651.519-.507 1.545-1.045 1.883-1.203.34-.157.207-.355.1-.429-.111-.076-.646-.496-.854-.625a.691.691 0 0 0-.486-.107c-.63.076-1.296.506-1.752.867-.12.097-.363.336-.929-.055zm23.223 34.984c.256.412.418.869.618 1.313-.845.367-2.225.532-2.67.558-.446.025-.434.33-.367.482.064.146.356.926.494 1.189.132.262.293.335.429.375a.518.518 0 0 0 .111.02c-4.707 4.617-11.236 7.355-18.344 7.057a25.15 25.15 0 0 1-1.034-.069l9.102-18.201h-21.632l2.529-5.061c.197-.034.385-.07.494-.101a.773.773 0 0 0 .479-.36c.44-.672.617-1.727.681-2.514.014-.213-.002-.656.785-.822.449-.095.908-.092 1.365-.122-.121.982-.668 2.416-.865 2.87-.201.458.056.56.206.55.159-.008.935.004 1.216-.032a.744.744 0 0 0 .515-.284c.522-.609.828-1.634.983-2.411.043-.209.084-.655.879-.7.453-.026.902.044 1.35.09-.237.959-.956 2.308-1.207 2.73-.257.428-.02.568.136.584.153.014.916.146 1.193.152a.736.736 0 0 0 .545-.2c.588-.533 1.013-1.503 1.27-2.255.066-.209.164-.652.95-.578.45.042.884.196 1.321.309-.355.924-1.232 2.171-1.532 2.552-.306.387-.089.556.063.597.145.045.88.29 1.151.344a.7.7 0 0 0 .558-.125c.64-.434 1.183-1.346 1.53-2.054.096-.193.242-.617.999-.417.433.115.851.318 1.267.495-.465.872-1.486 1.975-1.832 2.315-.342.333-.151.545-.012.604.139.064.831.424 1.087.523a.64.64 0 0 0 .565-.042c.686-.33 1.333-1.152 1.757-1.812.119-.18.328-.59 1.046-.274.416.182.781.464 1.168.71-.564.793-1.701 1.74-2.08 2.022-.385.282-.221.52-.098.604.134.088.764.549 1.008.683a.642.642 0 0 0 .561.052c.711-.227 1.453-.951 1.953-1.538.138-.162.387-.539 1.057-.109.383.246.714.58 1.06.887-.653.704-1.894 1.471-2.299 1.695-.409.224-.282.491-.167.59.118.103.683.667.9.839.22.171.4.164.541.143.729-.123 1.549-.729 2.113-1.243.16-.139.439-.464 1.046.061.353.305.634.679.938 1.042-.734.605-2.047 1.178-2.479 1.341-.423.167-.333.443-.23.562.101.125.578.771.773.98.199.205.379.226.515.222.734-.006 1.609-.486 2.232-.911.17-.115.502-.41 1.027.213.307.363.533.786.779 1.192-.795.491-2.154.865-2.598.959-.441.095-.385.392-.301.526.08.137.471.865.637 1.103a.659.659 0 0 0 .476.295c.721.106 1.643-.238 2.308-.57.183-.082.547-.319.981.375z" fill="#002b5c"/><g fill="#fff"><path d="M82.882 52.168l-7.675 15.349h-5.739l3.022 5.435-6.58 13.16 5.367 6h23.408l11.369-6 7.111-14.225H98.538l-4.986 9.967H82.621l12.715-25.429h10.932l-3.641 7.283h14.629l8.769-17.541h-13.938l-1.924 3.851-2.091-3.851H94.25z"/><path fill-rule="evenodd" clip-rule="evenodd" d="M68.612 60.601l7.216-14.434H61.891l-1.925 3.851-2.092-3.851H44.053l-11.366 6.001-7.676 15.349h-5.74l3.023 5.435-6.58 13.16 5.368 6h17.807l1.926-3.851 2.085 3.851h9.956l12.297-24.595H43.37l3.73 6.837-3.75 7.5H32.425l12.714-25.429h10.933l-2.089 4.176z"/><path d="M145.389 67.517l3.746 6.843-3.746 7.494H134.48l12.714-25.429h3.929l5.129-10.258h-22.439l-5.127 10.258h3.927l-5.546 11.092h-5.74l3.023 5.435-4.454 8.902h-3.925l-5.129 10.258h44.068l12.299-24.595z"/></g><g fill="#002b5c"><path d="M6.249 115.204l1.164-2.326H6.299l1.015-2.028h3.94l-2.485 4.968-2.585 1.521H1.176L0 115.817l3.91-7.818 2.6-1.505h5.097l1.074 1.505-.744 1.486H9.109l.436-.875h-3.16l-3.297 6.594h3.161zM15.97 106.494h2.783l-4.357 8.71h3.229l4.355-8.71h2.804l-4.662 9.323-2.652 1.521h-5.008l-1.154-1.521 4.662-9.323zM29.601 115.204l-1.066 2.135h-6.389l5.423-10.845h2.782l-4.357 8.71h3.607zM35.419 112.878l-2.231 4.461h-2.827l5.423-10.845h6.767l-1.059 2.116h-3.939l-1.068 2.134h3.939l-1.066 2.134h-3.939z"/><g><path d="M50.001 115.204l1.25-2.499h2.804l-1.556 3.112-2.652 1.521h-5.031l-1.11-1.521 3.909-7.818 2.624-1.505h5.029l1.14 1.505-1.215 2.432h-2.806l.909-1.82h-3.205l-3.296 6.594h3.206zM58.793 107.999l2.622-1.505h5.098l1.118 1.505-3.911 7.818-2.719 1.521h-4.919l-1.199-1.521 3.91-7.818zm2.451 7.205l3.298-6.594h-3.25l-3.297 6.594h3.249zM68.777 115.311l-1.571 2.027h-2.871l8.337-10.845h4.119l-2.572 10.845h-2.894l.48-2.027h-3.028zm4.411-5.703l-2.862 3.672h1.981l.881-3.672zM79.911 114.226l-.49.978h3.228l1.163-2.326h-4.096l-1.153-1.521L80.244 108l2.665-1.505h5.031L89.08 108l-.779 1.557h-2.826l.471-.945H82.72l-1.067 2.134h4.139l1.164 1.505-1.786 3.568-2.674 1.521h-5.031l-1.13-1.521.795-1.591h2.781zM89.806 108.61l1.059-2.116h8.303l-1.06 2.116h-2.736l-4.366 8.729h-2.804l4.365-8.729h-2.761z"/></g><g><path d="M106.665 115.204l-1.065 2.135h-6.39l5.421-10.845h2.784l-4.355 8.71h3.605zM115.636 115.204l-1.065 2.135h-7.212l5.423-10.845h7.211l-1.058 2.114h-4.407l-1.067 2.137h4.408l-1.067 2.133h-4.407l-1.164 2.326h4.405zM120.389 115.309l-1.57 2.029h-2.873l8.337-10.845h4.12l-2.575 10.845h-2.895l.482-2.029h-3.026zm4.41-5.702l-2.861 3.673h1.979l.882-3.673zM134.191 115.204l1.162-2.326h-1.11l1.015-2.029h3.939l-2.484 4.968-2.586 1.522h-5.008l-1.175-1.522 3.909-7.819 2.597-1.503h5.098l1.074 1.503-.741 1.486h-2.829l.438-.875h-3.162l-3.297 6.596h3.16zM143.912 106.494h2.783l-4.355 8.71h3.229l4.355-8.71h2.803l-4.66 9.322-2.652 1.522h-5.009l-1.153-1.522 4.659-9.322zM158.303 115.204l-1.068 2.135h-7.213l5.424-10.845h7.213l-1.061 2.114h-4.406l-1.066 2.137h4.407l-1.068 2.133h-4.405l-1.164 2.326h4.407z"/></g></g></svg>